<svg width="277" height="59" viewBox="0 0 277 59" fill="none" xmlns="http://www.w3.org/2000/svg">
<path d="M25.9318 0C11.6098 0 0 11.6098 0 25.9318C0 40.2545 11.6098 51.8643 25.9318 51.8643C25.9545 51.8643 25.9772 51.8627 26 51.8627V0.001625C25.9772 0.001625 25.9545 0 25.9318 0Z" fill="#30ABB9"/>
<path d="M51.8643 25.9318C51.8643 11.6326 40.2911 0.0390001 26 0.00162506V51.8627C40.2911 51.8253 51.8643 40.2318 51.8643 25.9318Z" fill="#31A1A9"/>
<path d="M5.61356 21.0291C5.61356 21.0291 6.02469 22.5534 5.58594 23.3789C5.14556 24.2044 4.65481 24.5131 5.03994 25.7757C5.42588 27.0432 5.21869 27.5852 5.80938 28.3067C6.40331 29.0298 6.50569 30.0617 7.84631 30.4517C9.18775 30.8409 10.4244 32.8039 10.5771 34.3509C10.7299 35.8995 12.3151 44.1309 17.3241 44.6282C18.6412 44.7582 17.0162 44.1382 16.3979 43.1576C16.3979 43.1576 15.522 42.2004 15.704 41.4009C15.8836 40.6014 15.8332 40.0847 15.808 39.8271C15.7828 39.5696 15.4749 39.078 16.0168 39.2852C16.5579 39.4932 16.6871 38.1761 16.6619 37.9177C16.6368 37.661 17.9018 37.2734 18.1342 36.9899C18.3666 36.7071 18.5738 36.1644 19.0141 35.3405C19.4537 34.5158 18.577 33.5595 19.3001 32.9672C20.0233 32.3732 21.6231 32.7381 21.5467 31.9629C21.4695 31.1886 21.3939 30.4167 21.8847 30.1072C22.3754 29.7976 21.9635 28.2742 21.9123 27.7574C21.8619 27.2431 24.1077 26.2389 23.439 24.7406C22.7703 23.2424 19.8803 23.0076 17.1982 22.2308C14.5153 21.4532 16.0379 21.0421 16.0128 20.7837C15.9868 20.5262 14.9801 20.8861 14.6973 20.6529C14.4129 20.4197 13.6394 20.4969 12.8148 20.0574C11.9893 19.6186 12.2476 19.5934 11.9381 19.1027C11.6301 18.6119 11.6553 18.8703 10.6226 18.9719C9.59075 19.0742 9.12519 19.6406 8.58406 19.4342C8.04213 19.2262 7.501 19.019 7.26863 19.3026C7.03381 19.5869 6.07831 20.4636 5.61356 21.0291Z" fill="#BFCE66"/>
<path d="M18.8598 0.785683C18.8598 0.785683 5.6282 4.36474 2.55613 15.5366C2.55613 15.5366 2.27663 15.2571 3.11513 16.6546C3.95282 18.0513 4.79051 17.4923 4.79051 18.0513C4.79051 18.6103 5.34951 18.3308 5.34951 19.1685C5.34951 20.0062 6.4667 19.7275 7.02488 19.7275C7.58388 19.7275 7.02488 19.448 6.74538 19.1685C6.46588 18.889 5.9077 18.3308 6.18638 17.7718C6.46507 17.2128 6.18638 16.9341 7.02407 16.0964C7.86257 15.2579 7.58307 14.9784 8.14207 14.6989C8.70107 14.4194 8.70107 14.4194 9.25926 14.6989C9.81745 14.9784 10.0961 15.5366 10.6551 15.2579C11.2141 14.9792 11.7723 14.6989 12.0518 14.4202C12.3313 14.1416 12.3313 14.1407 11.4928 14.1407C10.6543 14.1407 10.3756 13.8612 10.0961 13.8612C9.81664 13.8612 9.53795 14.4202 9.25926 13.8612C8.98057 13.3022 8.42157 13.0236 8.42157 13.0236C8.42157 13.0236 6.74538 13.3031 7.02407 12.1859C7.30439 11.0695 7.02407 12.1859 7.30438 11.0695C7.58388 9.9515 6.74538 10.5105 7.58388 9.9515C8.42157 9.3925 8.14289 9.9515 8.14289 10.79C8.14289 11.6269 8.70188 11.6269 8.70188 11.9064C8.70188 12.1859 8.70188 11.3474 8.98138 11.0695C9.26088 10.79 8.98139 10.231 9.54039 9.9515C10.0986 9.672 9.54039 10.231 10.0986 9.672C10.6576 9.113 10.3781 8.83431 10.9363 8.27531C11.4944 7.71631 11.2158 7.71631 12.0534 7.43762C12.8919 7.15812 12.8919 6.87862 13.4509 6.87862C14.0099 6.87862 14.0099 6.04175 15.4058 5.48275C16.8017 4.92375 16.8017 4.36475 16.8017 4.36475C16.8017 4.36475 15.1263 6.32043 16.8017 4.92375C18.4779 3.52625 17.9189 4.08525 18.4779 4.36475C19.0369 4.64425 20.4328 5.20325 20.4328 4.64425C20.4328 4.08525 19.3156 4.64425 19.3156 3.24756C19.3156 1.85087 18.8598 1.34387 18.8598 0.785683Z" fill="#BFCE66"/>
<path d="M51.7384 26.7378C51.7384 30.5159 49.5902 34.0689 47.216 35.9848C45.7105 37.1987 46.4076 36.114 45.7292 37.0573C45.0499 37.9998 45.392 34.6011 45.3058 34.0584C45.2181 33.5156 45.8445 33.9714 45.7584 33.4295C45.6731 32.8876 46.4807 32.7576 46.0387 31.7168C45.5959 30.6759 46.0907 30.3176 46.2305 29.4621C46.371 28.6033 46.2735 29.7318 46.0574 28.3766C45.8405 27.0197 45.5715 27.0628 45.7543 26.4769C45.9388 25.8919 46.7895 26.0333 46.6603 25.2192C46.5303 24.4067 46.4433 23.8623 46.4433 23.8623C46.4433 23.8623 45.8616 23.6779 45.8177 23.4073C45.7747 23.1351 46.3133 23.0498 46.2264 22.5071C46.1411 21.9651 44.889 21.0527 44.7582 20.2369C44.6282 19.4236 45.2124 19.6089 45.0808 18.7964C44.9516 17.9823 44.6388 17.7539 44.3252 17.5256C44.0115 17.2973 43.7418 17.3404 43.3875 16.8415C43.0317 16.3418 41.1003 16.3719 41.1865 16.9146C41.2726 17.4558 40.6908 17.2705 39.6118 17.4436C38.5337 17.6142 38.7075 18.7005 37.9495 17.4298C37.1955 16.1598 35.2642 16.1891 35.4031 15.3327C35.5437 14.4763 35.0472 14.8338 34.4655 14.6478C33.8821 14.4617 32.9883 14.0489 33.397 13.1495C33.8073 12.2501 33.6773 11.4359 33.0509 10.9785C32.4261 10.5219 33.4604 10.0791 33.6002 9.22188C33.7399 8.36632 34.0097 8.32325 34.1925 7.73663C34.3761 7.15082 34.0625 6.92413 34.0194 6.65275C33.9755 6.37975 33.8455 5.56725 33.4905 5.06675C33.1338 4.56869 32.0995 5.0115 32.5073 4.11125C32.9185 3.21263 33.1443 2.89819 33.1013 2.626C33.0574 2.35463 33.0574 2.35463 32.4748 2.16938C31.8923 1.98494 32.2473 2.48544 31.3958 2.34244C30.5435 2.19944 30.3168 2.51469 29.961 2.015C29.6043 1.51613 29.5173 0.974189 28.9787 1.05869C28.44 1.14481 28.44 1.14481 27.3171 1.04488C26.195 0.946564 25.6117 0.760501 26.1089 0.403814C26.6053 0.0463138 27.4146 -0.0828737 28.2669 0.0593138C29.1176 0.202314 44.2723 0.956313 49.6438 15.9331C50.5741 18.2878 51.7993 21.6109 51.7384 26.7378Z" fill="#BFCE66"/>
<path d="M37.5237 49.179C36.0157 50.1174 25.2785 54.2864 15.8478 49.5714C15.8478 49.5714 15.9478 47.7344 18.0245 49.0718C20.1013 50.4091 21.4695 48.6891 20.6912 47.2038C19.9128 45.7178 21.8165 46.293 22.5071 48.3941C23.0604 50.0744 29.3118 49.6673 31.6477 48.6257C33.982 47.5857 38.8871 47.7677 37.5237 49.179Z" fill="#BFCE66"/>
<path opacity="0.1" d="M14.7395 17.5637C14.5629 17.637 14.3816 17.7309 14.2846 17.8957C14.1818 18.0697 14.1941 18.2857 14.2132 18.4871C14.38 20.2332 14.8193 22.0902 14.0607 23.6719C13.6925 24.4392 13.0766 25.0541 12.5867 25.751C12.0969 26.4478 11.727 27.3179 11.9544 28.1377C12.2322 29.1394 13.2688 29.6948 13.9675 30.4657C14.4248 30.9697 14.7455 31.5821 15.1722 32.1123C15.5989 32.6426 16.1836 33.1097 16.8649 33.1408C17.8446 33.1859 18.6417 32.3404 19.6023 32.1446C20.5864 31.9441 21.5774 32.4543 22.3753 33.0652C23.1733 33.676 23.8991 34.416 24.8288 34.7973C25.8555 35.2188 27.0129 35.1544 28.0938 35.4076C29.0779 35.6384 29.9838 36.1293 30.9608 36.391C31.9379 36.6527 33.083 36.6369 33.8399 35.9684C34.8265 35.0943 34.7488 33.5372 35.379 32.3809C35.9642 31.3065 37.1099 30.6651 37.881 29.7153C39.2686 28.0057 39.2233 25.3929 38.0451 23.5336C36.8669 21.6744 34.7327 20.5487 32.5505 20.2556C31.5664 20.1236 30.553 20.1417 29.6069 19.8415C27.0744 19.0383 25.5674 16.1607 22.9819 15.5619C21.3385 15.182 19.7401 15.84 18.3402 16.65C17.1251 17.3531 16.004 17.0395 14.7395 17.5637Z" fill="#F9C926"/>
<path d="M25.8514 35.6571C31.267 35.6571 35.6571 31.2005 35.6571 25.7029C35.6571 20.2053 31.267 15.7486 25.8514 15.7486C20.4359 15.7486 16.0457 20.2053 16.0457 25.7029C16.0457 31.2005 20.4359 35.6571 25.8514 35.6571Z" fill="url(#paint0_linear)"/>
<path d="M25.8514 35.36C31.267 35.36 35.6571 31.0364 35.6571 25.7029C35.6571 20.3694 31.267 16.0457 25.8514 16.0457C20.4359 16.0457 16.0457 20.3694 16.0457 25.7029C16.0457 31.0364 20.4359 35.36 25.8514 35.36Z" fill="#F9C926"/>
<path d="M25.8514 33.5771C30.1182 33.5771 33.5772 30.1182 33.5772 25.8514C33.5772 21.5846 30.1182 18.1257 25.8514 18.1257C21.5847 18.1257 18.1257 21.5846 18.1257 25.8514C18.1257 30.1182 21.5847 33.5771 25.8514 33.5771Z" fill="#F2F2F2"/>
<path opacity="0.3" d="M26.1486 19.3143H25.5543V26.1486H26.1486V19.3143Z" fill="#333333"/>
<g opacity="0.1">
<path opacity="0.1" d="M32.515 25.6054H26.3235V26.1517H32.515V25.6054Z" fill="black"/>
<path opacity="0.1" d="M21.9522 23.5613L21.698 24.0453L25.5938 26.0796L25.848 25.5956L21.9522 23.5613Z" fill="black"/>
<path opacity="0.1" d="M25.8578 26.6981C26.3117 26.6981 26.6797 26.3312 26.6797 25.8785C26.6797 25.4259 26.3117 25.059 25.8578 25.059C25.4039 25.059 25.0359 25.4259 25.0359 25.8785C25.0359 26.3312 25.4039 26.6981 25.8578 26.6981Z" fill="black"/>
</g>
<path d="M32.3886 25.5543H26.4457V26.1486H32.3886V25.5543Z" fill="#333333"/>
<path d="M25.8497 25.4869L21.9539 23.4526L21.6997 23.9366L25.5955 25.9709L25.8497 25.4869Z" fill="#333333"/>
<path d="M25.8514 26.4457C26.3438 26.4457 26.7429 26.1131 26.7429 25.7029C26.7429 25.2926 26.3438 24.96 25.8514 24.96C25.3591 24.96 24.96 25.2926 24.96 25.7029C24.96 26.1131 25.3591 26.4457 25.8514 26.4457Z" fill="#535461"/>
<g opacity="0.1">
<path opacity="0.1" d="M18.7068 26.6981C18.7068 22.4283 22.1779 18.9671 26.4599 18.9671C27.6618 18.966 28.8474 19.244 29.9228 19.7791C30.9982 20.3141 31.9339 21.0915 32.6558 22.0496C31.3364 19.6588 28.7886 18.0383 25.8572 18.0383C21.5752 18.0383 18.1041 21.4995 18.1041 25.7693C18.1016 27.4466 18.6486 29.0789 19.6621 30.4177C19.0336 29.2782 18.7049 27.9985 18.7068 26.6981Z" fill="black"/>
</g>
<g opacity="0.1">
<path opacity="0.1" d="M28.9041 28.2967C28.8686 28.3304 28.8397 28.3705 28.8189 28.4147C28.6242 28.327 28.4195 28.2164 28.345 28.1754L28.3392 28.1724C28.3764 28.1258 28.419 28.0837 28.4661 28.047C28.4661 28.047 29.0044 28.2093 28.9041 28.2967Z" fill="black"/>
</g>
<g opacity="0.1">
<path opacity="0.1" d="M29.9691 20.201C29.8953 20.2969 29.7968 20.3708 29.684 20.4148C29.5712 20.4588 29.4485 20.4712 29.3291 20.4507C29.3222 20.3109 29.2932 20.1713 29.217 20.086C29.0168 19.8615 29.8677 19.8989 29.8677 19.8989C29.8938 20.002 29.9277 20.103 29.9691 20.201Z" fill="black"/>
</g>
<g opacity="0.1">
<path opacity="0.1" d="M31.3227 21.3793C31.2306 21.4131 30.8742 21.5566 30.8348 21.7617C30.8104 21.6703 30.7921 21.5774 30.78 21.4836L31.2183 21.2465C31.2599 21.285 31.2951 21.3298 31.3227 21.3793Z" fill="black"/>
</g>
<path d="M71.57 14.525C71.55 14.535 71.54 14.545 71.54 14.555C71.54 14.565 71.55 14.575 71.57 14.585C72.11 14.815 72.525 15.15 72.815 15.59C73.115 16.03 73.265 16.555 73.265 17.165C73.265 18.045 72.985 18.74 72.425 19.25C71.875 19.75 71.145 20 70.235 20H66.68C66.58 20 66.53 19.95 66.53 19.85V9.65C66.53 9.55 66.58 9.5 66.68 9.5H70.13C71.06 9.5 71.795 9.74 72.335 10.22C72.875 10.7 73.145 11.365 73.145 12.215C73.145 12.775 73.01 13.25 72.74 13.64C72.47 14.03 72.08 14.325 71.57 14.525ZM67.385 10.205C67.345 10.205 67.325 10.225 67.325 10.265V14.195C67.325 14.235 67.345 14.255 67.385 14.255H70.13C70.81 14.255 71.35 14.075 71.75 13.715C72.16 13.345 72.365 12.86 72.365 12.26C72.365 11.64 72.16 11.145 71.75 10.775C71.35 10.395 70.81 10.205 70.13 10.205H67.385ZM70.235 19.28C70.915 19.28 71.455 19.085 71.855 18.695C72.265 18.295 72.47 17.77 72.47 17.12C72.47 16.45 72.26 15.92 71.84 15.53C71.42 15.13 70.86 14.93 70.16 14.93H67.385C67.345 14.93 67.325 14.95 67.325 14.99V19.22C67.325 19.26 67.345 19.28 67.385 19.28H70.235ZM75.2014 23C75.1314 23 75.0964 22.95 75.0964 22.85V22.46C75.0964 22.36 75.1464 22.31 75.2464 22.31H75.3064C75.6864 22.3 75.9814 22.235 76.1914 22.115C76.4114 22.005 76.5964 21.795 76.7464 21.485C76.9064 21.175 77.0914 20.695 77.3014 20.045C77.3214 20.005 77.3214 19.975 77.3014 19.955L74.7364 12.605L74.7214 12.545C74.7214 12.475 74.7664 12.44 74.8564 12.44H75.3664C75.4564 12.44 75.5164 12.48 75.5464 12.56L77.6764 18.92C77.6864 18.94 77.7014 18.95 77.7214 18.95C77.7414 18.95 77.7564 18.94 77.7664 18.92L79.8364 12.56C79.8664 12.48 79.9264 12.44 80.0164 12.44H80.5264C80.6364 12.44 80.6764 12.495 80.6464 12.605L77.8114 20.765C77.5814 21.415 77.3664 21.895 77.1664 22.205C76.9664 22.515 76.7264 22.725 76.4464 22.835C76.1764 22.945 75.7964 23 75.3064 23H75.2014ZM88.1076 20.12C87.3976 20.12 86.7926 19.935 86.2926 19.565C85.8026 19.195 85.4726 18.7 85.3026 18.08C85.1726 17.6 85.1076 16.975 85.1076 16.205C85.1076 15.465 85.1726 14.845 85.3026 14.345C85.4626 13.735 85.7926 13.245 86.2926 12.875C86.7926 12.505 87.3976 12.32 88.1076 12.32C88.8176 12.32 89.4276 12.5 89.9376 12.86C90.4576 13.22 90.7876 13.67 90.9276 14.21C90.9676 14.35 90.9976 14.49 91.0176 14.63V14.66C91.0176 14.73 90.9726 14.775 90.8826 14.795L90.4026 14.855H90.3726C90.3026 14.855 90.2576 14.81 90.2376 14.72L90.1926 14.51C90.1026 14.09 89.8676 13.74 89.4876 13.46C89.1076 13.17 88.6476 13.025 88.1076 13.025C87.5576 13.025 87.0976 13.17 86.7276 13.46C86.3676 13.75 86.1376 14.135 86.0376 14.615C85.9476 14.995 85.9026 15.53 85.9026 16.22C85.9026 16.92 85.9476 17.45 86.0376 17.81C86.1376 18.3 86.3676 18.69 86.7276 18.98C87.0976 19.27 87.5576 19.415 88.1076 19.415C88.6476 19.415 89.1076 19.275 89.4876 18.995C89.8776 18.705 90.1126 18.345 90.1926 17.915L90.2076 17.84C90.2276 17.73 90.2876 17.685 90.3876 17.705L90.8526 17.78C90.9526 17.8 90.9976 17.855 90.9876 17.945L90.9276 18.215C90.7876 18.775 90.4576 19.235 89.9376 19.595C89.4276 19.945 88.8176 20.12 88.1076 20.12ZM96.067 12.335C96.837 12.335 97.457 12.57 97.927 13.04C98.407 13.51 98.647 14.13 98.647 14.9V19.85C98.647 19.95 98.597 20 98.497 20H98.002C97.902 20 97.852 19.95 97.852 19.85V15.05C97.852 14.46 97.672 13.98 97.312 13.61C96.952 13.23 96.482 13.04 95.902 13.04C95.302 13.04 94.817 13.225 94.447 13.595C94.077 13.955 93.892 14.43 93.892 15.02V19.85C93.892 19.95 93.842 20 93.742 20H93.247C93.147 20 93.097 19.95 93.097 19.85V9.65C93.097 9.55 93.147 9.5 93.247 9.5H93.742C93.842 9.5 93.892 9.55 93.892 9.65V13.325C93.892 13.355 93.897 13.375 93.907 13.385C93.927 13.385 93.942 13.375 93.952 13.355C94.172 13.025 94.462 12.775 94.822 12.605C95.182 12.425 95.597 12.335 96.067 12.335ZM103.856 19.415C104.326 19.415 104.726 19.31 105.056 19.1C105.396 18.88 105.661 18.58 105.851 18.2C105.901 18.11 105.966 18.085 106.046 18.125L106.436 18.32C106.526 18.37 106.551 18.435 106.511 18.515C106.291 19.005 105.941 19.395 105.461 19.685C104.991 19.975 104.436 20.12 103.796 20.12C103.096 20.12 102.501 19.95 102.011 19.61C101.521 19.27 101.186 18.805 101.006 18.215C100.926 17.965 100.871 17.685 100.841 17.375C100.811 17.065 100.796 16.675 100.796 16.205C100.796 15.715 100.801 15.345 100.811 15.095C100.831 14.845 100.866 14.615 100.916 14.405C101.076 13.775 101.401 13.27 101.891 12.89C102.391 12.51 103.001 12.32 103.721 12.32C104.541 12.32 105.196 12.535 105.686 12.965C106.176 13.385 106.481 13.97 106.601 14.72C106.631 14.91 106.651 15.135 106.661 15.395C106.671 15.645 106.676 15.96 106.676 16.34C106.676 16.44 106.626 16.49 106.526 16.49H101.636C101.596 16.49 101.576 16.51 101.576 16.55C101.576 17.19 101.601 17.615 101.651 17.825C101.761 18.315 102.006 18.705 102.386 18.995C102.776 19.275 103.266 19.415 103.856 19.415ZM101.681 14.585C101.631 14.775 101.596 15.165 101.576 15.755C101.576 15.795 101.596 15.815 101.636 15.815H105.821C105.861 15.815 105.881 15.795 105.881 15.755C105.881 15.255 105.856 14.88 105.806 14.63C105.696 14.15 105.456 13.765 105.086 13.475C104.716 13.175 104.261 13.025 103.721 13.025C103.181 13.025 102.731 13.17 102.371 13.46C102.011 13.74 101.781 14.115 101.681 14.585ZM111.736 20.12C111.026 20.12 110.421 19.935 109.921 19.565C109.431 19.195 109.101 18.7 108.931 18.08C108.801 17.6 108.736 16.975 108.736 16.205C108.736 15.465 108.801 14.845 108.931 14.345C109.091 13.735 109.421 13.245 109.921 12.875C110.421 12.505 111.026 12.32 111.736 12.32C112.446 12.32 113.056 12.5 113.566 12.86C114.086 13.22 114.416 13.67 114.556 14.21C114.596 14.35 114.626 14.49 114.646 14.63V14.66C114.646 14.73 114.601 14.775 114.511 14.795L114.031 14.855H114.001C113.931 14.855 113.886 14.81 113.866 14.72L113.821 14.51C113.731 14.09 113.496 13.74 113.116 13.46C112.736 13.17 112.276 13.025 111.736 13.025C111.186 13.025 110.726 13.17 110.356 13.46C109.996 13.75 109.766 14.135 109.666 14.615C109.576 14.995 109.531 15.53 109.531 16.22C109.531 16.92 109.576 17.45 109.666 17.81C109.766 18.3 109.996 18.69 110.356 18.98C110.726 19.27 111.186 19.415 111.736 19.415C112.276 19.415 112.736 19.275 113.116 18.995C113.506 18.705 113.741 18.345 113.821 17.915L113.836 17.84C113.856 17.73 113.916 17.685 114.016 17.705L114.481 17.78C114.581 17.8 114.626 17.855 114.616 17.945L114.556 18.215C114.416 18.775 114.086 19.235 113.566 19.595C113.056 19.945 112.446 20.12 111.736 20.12ZM116.875 20C116.775 20 116.725 19.95 116.725 19.85V9.65C116.725 9.55 116.775 9.5 116.875 9.5H117.37C117.47 9.5 117.52 9.55 117.52 9.65V16.055C117.52 16.075 117.525 16.09 117.535 16.1C117.555 16.11 117.575 16.105 117.595 16.085L121.06 12.515C121.11 12.465 121.17 12.44 121.24 12.44H121.84C121.9 12.44 121.935 12.46 121.945 12.5C121.965 12.53 121.955 12.57 121.915 12.62L120.01 14.66C119.99 14.68 119.985 14.705 119.995 14.735L122.305 19.82L122.32 19.88C122.32 19.96 122.275 20 122.185 20H121.66C121.58 20 121.525 19.96 121.495 19.88L119.455 15.275C119.435 15.235 119.41 15.23 119.38 15.26L117.55 17.15C117.53 17.17 117.52 17.195 117.52 17.225V19.85C117.52 19.95 117.47 20 117.37 20H116.875ZM124.723 10.925C124.503 10.925 124.323 10.855 124.183 10.715C124.043 10.575 123.973 10.395 123.973 10.175C123.973 9.955 124.043 9.775 124.183 9.635C124.323 9.495 124.503 9.425 124.723 9.425C124.943 9.425 125.123 9.495 125.263 9.635C125.403 9.775 125.473 9.955 125.473 10.175C125.473 10.395 125.403 10.575 125.263 10.715C125.123 10.855 124.943 10.925 124.723 10.925ZM124.438 19.985C124.338 19.985 124.288 19.935 124.288 19.835V12.575C124.288 12.475 124.338 12.425 124.438 12.425H124.933C125.033 12.425 125.083 12.475 125.083 12.575V19.835C125.083 19.935 125.033 19.985 124.933 19.985H124.438ZM130.916 12.335C131.686 12.335 132.306 12.57 132.776 13.04C133.256 13.51 133.496 14.13 133.496 14.9V19.85C133.496 19.95 133.446 20 133.346 20H132.851C132.751 20 132.701 19.95 132.701 19.85V15.05C132.701 14.46 132.521 13.98 132.161 13.61C131.801 13.23 131.331 13.04 130.751 13.04C130.151 13.04 129.666 13.225 129.296 13.595C128.926 13.955 128.741 14.43 128.741 15.02V19.85C128.741 19.95 128.691 20 128.591 20H128.096C127.996 20 127.946 19.95 127.946 19.85V12.59C127.946 12.49 127.996 12.44 128.096 12.44H128.591C128.691 12.44 128.741 12.49 128.741 12.59V13.325C128.741 13.355 128.746 13.375 128.756 13.385C128.776 13.385 128.791 13.375 128.801 13.355C129.021 13.025 129.311 12.775 129.671 12.605C130.031 12.425 130.446 12.335 130.916 12.335ZM140.682 12.59C140.682 12.49 140.732 12.44 140.832 12.44H141.327C141.427 12.44 141.477 12.49 141.477 12.59V19.835C141.477 20.965 141.137 21.785 140.457 22.295C139.777 22.805 138.817 23.035 137.577 22.985C137.477 22.975 137.427 22.92 137.427 22.82L137.442 22.385C137.442 22.285 137.492 22.235 137.592 22.235C138.662 22.275 139.442 22.095 139.932 21.695C140.432 21.305 140.682 20.68 140.682 19.82V19.07C140.682 19.04 140.672 19.025 140.652 19.025C140.642 19.015 140.627 19.02 140.607 19.04C140.157 19.73 139.472 20.075 138.552 20.075C137.902 20.075 137.332 19.9 136.842 19.55C136.352 19.19 136.027 18.7 135.867 18.08C135.757 17.67 135.702 17.055 135.702 16.235C135.702 15.355 135.762 14.71 135.882 14.3C136.042 13.71 136.357 13.235 136.827 12.875C137.297 12.505 137.862 12.32 138.522 12.32C139.442 12.32 140.137 12.66 140.607 13.34C140.617 13.36 140.632 13.365 140.652 13.355C140.672 13.345 140.682 13.33 140.682 13.31V12.59ZM140.607 17.795C140.637 17.645 140.657 17.46 140.667 17.24C140.677 17.02 140.682 16.68 140.682 16.22C140.682 15.76 140.677 15.42 140.667 15.2C140.657 14.98 140.637 14.785 140.607 14.615C140.527 14.155 140.312 13.775 139.962 13.475C139.622 13.175 139.192 13.025 138.672 13.025C138.152 13.025 137.712 13.175 137.352 13.475C137.002 13.775 136.762 14.155 136.632 14.615C136.542 14.915 136.497 15.445 136.497 16.205C136.497 16.945 136.542 17.475 136.632 17.795C136.742 18.255 136.977 18.635 137.337 18.935C137.707 19.235 138.152 19.385 138.672 19.385C139.212 19.385 139.647 19.235 139.977 18.935C140.317 18.635 140.527 18.255 140.607 17.795ZM147.574 10.925C147.354 10.925 147.174 10.855 147.034 10.715C146.894 10.575 146.824 10.395 146.824 10.175C146.824 9.955 146.894 9.775 147.034 9.635C147.174 9.495 147.354 9.425 147.574 9.425C147.794 9.425 147.974 9.495 148.114 9.635C148.254 9.775 148.324 9.955 148.324 10.175C148.324 10.395 148.254 10.575 148.114 10.715C147.974 10.855 147.794 10.925 147.574 10.925ZM147.289 19.985C147.189 19.985 147.139 19.935 147.139 19.835V12.575C147.139 12.475 147.189 12.425 147.289 12.425H147.784C147.884 12.425 147.934 12.475 147.934 12.575V19.835C147.934 19.935 147.884 19.985 147.784 19.985H147.289ZM153.767 12.335C154.537 12.335 155.157 12.57 155.627 13.04C156.107 13.51 156.347 14.13 156.347 14.9V19.85C156.347 19.95 156.297 20 156.197 20H155.702C155.602 20 155.552 19.95 155.552 19.85V15.05C155.552 14.46 155.372 13.98 155.012 13.61C154.652 13.23 154.182 13.04 153.602 13.04C153.002 13.04 152.517 13.225 152.147 13.595C151.777 13.955 151.592 14.43 151.592 15.02V19.85C151.592 19.95 151.542 20 151.442 20H150.947C150.847 20 150.797 19.95 150.797 19.85V12.59C150.797 12.49 150.847 12.44 150.947 12.44H151.442C151.542 12.44 151.592 12.49 151.592 12.59V13.325C151.592 13.355 151.597 13.375 151.607 13.385C151.627 13.385 151.642 13.375 151.652 13.355C151.872 13.025 152.162 12.775 152.522 12.605C152.882 12.425 153.297 12.335 153.767 12.335ZM163.357 20C163.277 20 163.222 19.96 163.192 19.88L161.062 12.605L161.047 12.56C161.047 12.48 161.097 12.44 161.197 12.44H161.707C161.797 12.44 161.852 12.485 161.872 12.575L163.597 18.83C163.607 18.85 163.617 18.86 163.627 18.86C163.647 18.86 163.662 18.85 163.672 18.83L165.412 12.56C165.432 12.48 165.487 12.44 165.577 12.44H166.042C166.122 12.44 166.177 12.48 166.207 12.56L167.977 18.815C167.987 18.835 167.997 18.845 168.007 18.845C168.027 18.845 168.042 18.835 168.052 18.815L169.807 12.575C169.827 12.485 169.882 12.44 169.972 12.44L170.467 12.455C170.517 12.455 170.557 12.47 170.587 12.5C170.617 12.53 170.622 12.57 170.602 12.62L168.457 19.88C168.427 19.96 168.372 20 168.292 20H167.782C167.702 20 167.647 19.96 167.617 19.88L165.847 13.88C165.837 13.86 165.822 13.85 165.802 13.85C165.792 13.85 165.782 13.86 165.772 13.88L164.047 19.88C164.017 19.96 163.962 20 163.882 20H163.357ZM173.048 10.925C172.828 10.925 172.648 10.855 172.508 10.715C172.368 10.575 172.298 10.395 172.298 10.175C172.298 9.955 172.368 9.775 172.508 9.635C172.648 9.495 172.828 9.425 173.048 9.425C173.268 9.425 173.448 9.495 173.588 9.635C173.728 9.775 173.798 9.955 173.798 10.175C173.798 10.395 173.728 10.575 173.588 10.715C173.448 10.855 173.268 10.925 173.048 10.925ZM172.763 19.985C172.663 19.985 172.613 19.935 172.613 19.835V12.575C172.613 12.475 172.663 12.425 172.763 12.425H173.258C173.358 12.425 173.408 12.475 173.408 12.575V19.835C173.408 19.935 173.358 19.985 173.258 19.985H172.763ZM179.421 12.965C179.421 13.065 179.371 13.115 179.271 13.115H177.516C177.476 13.115 177.456 13.135 177.456 13.175V17.915C177.456 18.425 177.571 18.785 177.801 18.995C178.031 19.195 178.401 19.295 178.911 19.295H179.256C179.356 19.295 179.406 19.345 179.406 19.445V19.85C179.406 19.95 179.356 20 179.256 20L178.806 20.015C178.106 20.015 177.576 19.88 177.216 19.61C176.866 19.34 176.686 18.845 176.676 18.125V13.175C176.676 13.135 176.656 13.115 176.616 13.115H175.716C175.616 13.115 175.566 13.065 175.566 12.965V12.59C175.566 12.49 175.616 12.44 175.716 12.44H176.616C176.656 12.44 176.676 12.42 176.676 12.38V10.67C176.676 10.57 176.726 10.52 176.826 10.52H177.306C177.406 10.52 177.456 10.57 177.456 10.67V12.38C177.456 12.42 177.476 12.44 177.516 12.44H179.271C179.371 12.44 179.421 12.49 179.421 12.59V12.965ZM184.631 12.335C185.401 12.335 186.021 12.57 186.491 13.04C186.971 13.51 187.211 14.13 187.211 14.9V19.85C187.211 19.95 187.161 20 187.061 20H186.566C186.466 20 186.416 19.95 186.416 19.85V15.05C186.416 14.46 186.236 13.98 185.876 13.61C185.516 13.23 185.046 13.04 184.466 13.04C183.866 13.04 183.381 13.225 183.011 13.595C182.641 13.955 182.456 14.43 182.456 15.02V19.85C182.456 19.95 182.406 20 182.306 20H181.811C181.711 20 181.661 19.95 181.661 19.85V9.65C181.661 9.55 181.711 9.5 181.811 9.5H182.306C182.406 9.5 182.456 9.55 182.456 9.65V13.325C182.456 13.355 182.461 13.375 182.471 13.385C182.491 13.385 182.506 13.375 182.516 13.355C182.736 13.025 183.026 12.775 183.386 12.605C183.746 12.425 184.161 12.335 184.631 12.335ZM197.356 12.59C197.356 12.49 197.406 12.44 197.506 12.44H197.986C198.086 12.44 198.136 12.49 198.136 12.59V19.85C198.136 19.95 198.086 20 197.986 20H197.506C197.406 20 197.356 19.95 197.356 19.85V19.115C197.356 19.085 197.346 19.07 197.326 19.07C197.306 19.06 197.291 19.07 197.281 19.1C197.071 19.43 196.786 19.68 196.426 19.85C196.076 20.02 195.661 20.105 195.181 20.105C194.441 20.105 193.826 19.885 193.336 19.445C192.846 19.005 192.601 18.4 192.601 17.63V12.59C192.601 12.49 192.651 12.44 192.751 12.44H193.231C193.331 12.44 193.381 12.49 193.381 12.59V17.42C193.381 18.02 193.556 18.5 193.906 18.86C194.266 19.22 194.741 19.4 195.331 19.4C195.941 19.4 196.431 19.22 196.801 18.86C197.171 18.49 197.356 18.01 197.356 17.42V12.59ZM203.103 20.075C202.563 20.075 202.083 19.99 201.663 19.82C201.253 19.64 200.933 19.4 200.703 19.1C200.473 18.8 200.358 18.47 200.358 18.11V17.915C200.358 17.815 200.408 17.765 200.508 17.765H200.973C201.073 17.765 201.123 17.815 201.123 17.915V18.08C201.123 18.45 201.308 18.77 201.678 19.04C202.048 19.3 202.518 19.43 203.088 19.43C203.648 19.43 204.103 19.295 204.453 19.025C204.803 18.755 204.978 18.42 204.978 18.02C204.978 17.74 204.888 17.51 204.708 17.33C204.528 17.15 204.313 17.015 204.063 16.925C203.823 16.825 203.458 16.7 202.968 16.55C202.408 16.38 201.958 16.22 201.618 16.07C201.278 15.92 200.988 15.71 200.748 15.44C200.518 15.16 200.403 14.81 200.403 14.39C200.403 13.78 200.643 13.295 201.123 12.935C201.613 12.565 202.253 12.38 203.043 12.38C203.573 12.38 204.038 12.47 204.438 12.65C204.848 12.82 205.163 13.055 205.383 13.355C205.613 13.655 205.728 13.995 205.728 14.375V14.42C205.728 14.52 205.678 14.57 205.578 14.57H205.113C205.013 14.57 204.963 14.52 204.963 14.42V14.375C204.963 13.995 204.783 13.68 204.423 13.43C204.073 13.17 203.608 13.04 203.028 13.04C202.468 13.04 202.018 13.16 201.678 13.4C201.338 13.63 201.168 13.945 201.168 14.345C201.168 14.725 201.323 15.01 201.633 15.2C201.953 15.39 202.448 15.585 203.118 15.785C203.698 15.955 204.158 16.115 204.498 16.265C204.848 16.415 205.148 16.63 205.398 16.91C205.648 17.18 205.773 17.535 205.773 17.975C205.773 18.605 205.528 19.115 205.038 19.505C204.558 19.885 203.913 20.075 203.103 20.075ZM207.837 21.11C207.787 21.11 207.747 21.095 207.717 21.065C207.697 21.035 207.692 20.995 207.702 20.945L208.407 17.825C208.427 17.735 208.482 17.69 208.572 17.69H208.992C209.042 17.69 209.077 17.705 209.097 17.735C209.127 17.765 209.137 17.805 209.127 17.855L208.317 20.975C208.307 21.065 208.252 21.11 208.152 21.11H207.837ZM216.355 20C216.275 20 216.22 19.96 216.19 19.88L214.06 12.605L214.045 12.56C214.045 12.48 214.095 12.44 214.195 12.44H214.705C214.795 12.44 214.85 12.485 214.87 12.575L216.595 18.83C216.605 18.85 216.615 18.86 216.625 18.86C216.645 18.86 216.66 18.85 216.67 18.83L218.41 12.56C218.43 12.48 218.485 12.44 218.575 12.44H219.04C219.12 12.44 219.175 12.48 219.205 12.56L220.975 18.815C220.985 18.835 220.995 18.845 221.005 18.845C221.025 18.845 221.04 18.835 221.05 18.815L222.805 12.575C222.825 12.485 222.88 12.44 222.97 12.44L223.465 12.455C223.515 12.455 223.555 12.47 223.585 12.5C223.615 12.53 223.62 12.57 223.6 12.62L221.455 19.88C221.425 19.96 221.37 20 221.29 20H220.78C220.7 20 220.645 19.96 220.615 19.88L218.845 13.88C218.835 13.86 218.82 13.85 218.8 13.85C218.79 13.85 218.78 13.86 218.77 13.88L217.045 19.88C217.015 19.96 216.96 20 216.88 20H216.355ZM228.061 19.415C228.531 19.415 228.931 19.31 229.261 19.1C229.601 18.88 229.866 18.58 230.056 18.2C230.106 18.11 230.171 18.085 230.251 18.125L230.641 18.32C230.731 18.37 230.756 18.435 230.716 18.515C230.496 19.005 230.146 19.395 229.666 19.685C229.196 19.975 228.641 20.12 228.001 20.12C227.301 20.12 226.706 19.95 226.216 19.61C225.726 19.27 225.391 18.805 225.211 18.215C225.131 17.965 225.076 17.685 225.046 17.375C225.016 17.065 225.001 16.675 225.001 16.205C225.001 15.715 225.006 15.345 225.016 15.095C225.036 14.845 225.071 14.615 225.121 14.405C225.281 13.775 225.606 13.27 226.096 12.89C226.596 12.51 227.206 12.32 227.926 12.32C228.746 12.32 229.401 12.535 229.891 12.965C230.381 13.385 230.686 13.97 230.806 14.72C230.836 14.91 230.856 15.135 230.866 15.395C230.876 15.645 230.881 15.96 230.881 16.34C230.881 16.44 230.831 16.49 230.731 16.49H225.841C225.801 16.49 225.781 16.51 225.781 16.55C225.781 17.19 225.806 17.615 225.856 17.825C225.966 18.315 226.211 18.705 226.591 18.995C226.981 19.275 227.471 19.415 228.061 19.415ZM225.886 14.585C225.836 14.775 225.801 15.165 225.781 15.755C225.781 15.795 225.801 15.815 225.841 15.815H230.026C230.066 15.815 230.086 15.795 230.086 15.755C230.086 15.255 230.061 14.88 230.011 14.63C229.901 14.15 229.661 13.765 229.291 13.475C228.921 13.175 228.466 13.025 227.926 13.025C227.386 13.025 226.936 13.17 226.576 13.46C226.216 13.74 225.986 14.115 225.886 14.585ZM237.698 20C237.618 20 237.563 19.96 237.533 19.88L235.403 12.605L235.388 12.56C235.388 12.48 235.438 12.44 235.538 12.44H236.048C236.138 12.44 236.193 12.485 236.213 12.575L237.938 18.83C237.948 18.85 237.958 18.86 237.968 18.86C237.988 18.86 238.003 18.85 238.013 18.83L239.753 12.56C239.773 12.48 239.828 12.44 239.918 12.44H240.383C240.463 12.44 240.518 12.48 240.548 12.56L242.318 18.815C242.328 18.835 242.338 18.845 242.348 18.845C242.368 18.845 242.383 18.835 242.393 18.815L244.148 12.575C244.168 12.485 244.223 12.44 244.313 12.44L244.808 12.455C244.858 12.455 244.898 12.47 244.928 12.5C244.958 12.53 244.963 12.57 244.943 12.62L242.798 19.88C242.768 19.96 242.713 20 242.633 20H242.123C242.043 20 241.988 19.96 241.958 19.88L240.188 13.88C240.178 13.86 240.163 13.85 240.143 13.85C240.133 13.85 240.123 13.86 240.113 13.88L238.388 19.88C238.358 19.96 238.303 20 238.223 20H237.698ZM247.389 10.925C247.169 10.925 246.989 10.855 246.849 10.715C246.709 10.575 246.639 10.395 246.639 10.175C246.639 9.955 246.709 9.775 246.849 9.635C246.989 9.495 247.169 9.425 247.389 9.425C247.609 9.425 247.789 9.495 247.929 9.635C248.069 9.775 248.139 9.955 248.139 10.175C248.139 10.395 248.069 10.575 247.929 10.715C247.789 10.855 247.609 10.925 247.389 10.925ZM247.104 19.985C247.004 19.985 246.954 19.935 246.954 19.835V12.575C246.954 12.475 247.004 12.425 247.104 12.425H247.599C247.699 12.425 247.749 12.475 247.749 12.575V19.835C247.749 19.935 247.699 19.985 247.599 19.985H247.104ZM250.762 20C250.662 20 250.612 19.95 250.612 19.85V9.65C250.612 9.55 250.662 9.5 250.762 9.5H251.257C251.357 9.5 251.407 9.55 251.407 9.65V19.85C251.407 19.95 251.357 20 251.257 20H250.762ZM254.145 20C254.045 20 253.995 19.95 253.995 19.85V9.65C253.995 9.55 254.045 9.5 254.145 9.5H254.64C254.74 9.5 254.79 9.55 254.79 9.65V19.85C254.79 19.95 254.74 20 254.64 20H254.145ZM70.985 30.59C70.985 30.49 71.035 30.44 71.135 30.44H71.63C71.73 30.44 71.78 30.49 71.78 30.59V37.835C71.78 38.965 71.44 39.785 70.76 40.295C70.08 40.805 69.12 41.035 67.88 40.985C67.78 40.975 67.73 40.92 67.73 40.82L67.745 40.385C67.745 40.285 67.795 40.235 67.895 40.235C68.965 40.275 69.745 40.095 70.235 39.695C70.735 39.305 70.985 38.68 70.985 37.82V37.07C70.985 37.04 70.975 37.025 70.955 37.025C70.945 37.015 70.93 37.02 70.91 37.04C70.46 37.73 69.775 38.075 68.855 38.075C68.205 38.075 67.635 37.9 67.145 37.55C66.655 37.19 66.33 36.7 66.17 36.08C66.06 35.67 66.005 35.055 66.005 34.235C66.005 33.355 66.065 32.71 66.185 32.3C66.345 31.71 66.66 31.235 67.13 30.875C67.6 30.505 68.165 30.32 68.825 30.32C69.745 30.32 70.44 30.66 70.91 31.34C70.92 31.36 70.935 31.365 70.955 31.355C70.975 31.345 70.985 31.33 70.985 31.31V30.59ZM70.91 35.795C70.94 35.645 70.96 35.46 70.97 35.24C70.98 35.02 70.985 34.68 70.985 34.22C70.985 33.76 70.98 33.42 70.97 33.2C70.96 32.98 70.94 32.785 70.91 32.615C70.83 32.155 70.615 31.775 70.265 31.475C69.925 31.175 69.495 31.025 68.975 31.025C68.455 31.025 68.015 31.175 67.655 31.475C67.305 31.775 67.065 32.155 66.935 32.615C66.845 32.915 66.8 33.445 66.8 34.205C66.8 34.945 66.845 35.475 66.935 35.795C67.045 36.255 67.28 36.635 67.64 36.935C68.01 37.235 68.455 37.385 68.975 37.385C69.515 37.385 69.95 37.235 70.28 36.935C70.62 36.635 70.83 36.255 70.91 35.795ZM77.0791 37.415C77.5491 37.415 77.9491 37.31 78.2791 37.1C78.6191 36.88 78.8841 36.58 79.0741 36.2C79.1241 36.11 79.1891 36.085 79.2691 36.125L79.6591 36.32C79.7491 36.37 79.7741 36.435 79.7341 36.515C79.5141 37.005 79.1641 37.395 78.6841 37.685C78.2141 37.975 77.6591 38.12 77.0191 38.12C76.3191 38.12 75.7241 37.95 75.2341 37.61C74.7441 37.27 74.4091 36.805 74.2291 36.215C74.1491 35.965 74.0941 35.685 74.0641 35.375C74.0341 35.065 74.0191 34.675 74.0191 34.205C74.0191 33.715 74.0241 33.345 74.0341 33.095C74.0541 32.845 74.0891 32.615 74.1391 32.405C74.2991 31.775 74.6241 31.27 75.1141 30.89C75.6141 30.51 76.2241 30.32 76.9441 30.32C77.7641 30.32 78.4191 30.535 78.9091 30.965C79.3991 31.385 79.7041 31.97 79.8241 32.72C79.8541 32.91 79.8741 33.135 79.8841 33.395C79.8941 33.645 79.8991 33.96 79.8991 34.34C79.8991 34.44 79.8491 34.49 79.7491 34.49H74.8591C74.8191 34.49 74.7991 34.51 74.7991 34.55C74.7991 35.19 74.8241 35.615 74.8741 35.825C74.9841 36.315 75.2291 36.705 75.6091 36.995C75.9991 37.275 76.4891 37.415 77.0791 37.415ZM74.9041 32.585C74.8541 32.775 74.8191 33.165 74.7991 33.755C74.7991 33.795 74.8191 33.815 74.8591 33.815H79.0441C79.0841 33.815 79.1041 33.795 79.1041 33.755C79.1041 33.255 79.0791 32.88 79.0291 32.63C78.9191 32.15 78.6791 31.765 78.3091 31.475C77.9391 31.175 77.4841 31.025 76.9441 31.025C76.4041 31.025 75.9541 31.17 75.5941 31.46C75.2341 31.74 75.0041 32.115 74.9041 32.585ZM85.1832 30.335C85.9532 30.335 86.5732 30.57 87.0432 31.04C87.5232 31.51 87.7632 32.13 87.7632 32.9V37.85C87.7632 37.95 87.7132 38 87.6132 38H87.1182C87.0182 38 86.9682 37.95 86.9682 37.85V33.05C86.9682 32.46 86.7882 31.98 86.4282 31.61C86.0682 31.23 85.5982 31.04 85.0182 31.04C84.4182 31.04 83.9332 31.225 83.5632 31.595C83.1932 31.955 83.0082 32.43 83.0082 33.02V37.85C83.0082 37.95 82.9582 38 82.8582 38H82.3632C82.2632 38 82.2132 37.95 82.2132 37.85V30.59C82.2132 30.49 82.2632 30.44 82.3632 30.44H82.8582C82.9582 30.44 83.0082 30.49 83.0082 30.59V31.325C83.0082 31.355 83.0132 31.375 83.0232 31.385C83.0432 31.385 83.0582 31.375 83.0682 31.355C83.2882 31.025 83.5782 30.775 83.9382 30.605C84.2982 30.425 84.7132 30.335 85.1832 30.335ZM92.9727 37.415C93.4427 37.415 93.8427 37.31 94.1727 37.1C94.5127 36.88 94.7777 36.58 94.9677 36.2C95.0177 36.11 95.0827 36.085 95.1627 36.125L95.5527 36.32C95.6427 36.37 95.6677 36.435 95.6277 36.515C95.4077 37.005 95.0577 37.395 94.5777 37.685C94.1077 37.975 93.5527 38.12 92.9127 38.12C92.2127 38.12 91.6177 37.95 91.1277 37.61C90.6377 37.27 90.3027 36.805 90.1227 36.215C90.0427 35.965 89.9877 35.685 89.9577 35.375C89.9277 35.065 89.9127 34.675 89.9127 34.205C89.9127 33.715 89.9177 33.345 89.9277 33.095C89.9477 32.845 89.9827 32.615 90.0327 32.405C90.1927 31.775 90.5177 31.27 91.0077 30.89C91.5077 30.51 92.1177 30.32 92.8377 30.32C93.6577 30.32 94.3127 30.535 94.8027 30.965C95.2927 31.385 95.5977 31.97 95.7177 32.72C95.7477 32.91 95.7677 33.135 95.7777 33.395C95.7877 33.645 95.7927 33.96 95.7927 34.34C95.7927 34.44 95.7427 34.49 95.6427 34.49H90.7527C90.7127 34.49 90.6927 34.51 90.6927 34.55C90.6927 35.19 90.7177 35.615 90.7677 35.825C90.8777 36.315 91.1227 36.705 91.5027 36.995C91.8927 37.275 92.3827 37.415 92.9727 37.415ZM90.7977 32.585C90.7477 32.775 90.7127 33.165 90.6927 33.755C90.6927 33.795 90.7127 33.815 90.7527 33.815H94.9377C94.9777 33.815 94.9977 33.795 94.9977 33.755C94.9977 33.255 94.9727 32.88 94.9227 32.63C94.8127 32.15 94.5727 31.765 94.2027 31.475C93.8327 31.175 93.3777 31.025 92.8377 31.025C92.2977 31.025 91.8477 31.17 91.4877 31.46C91.1277 31.74 90.8977 32.115 90.7977 32.585ZM100.957 30.38C101.297 30.38 101.587 30.44 101.827 30.56C101.907 30.59 101.937 30.655 101.917 30.755L101.782 31.235C101.752 31.335 101.687 31.365 101.587 31.325C101.387 31.245 101.137 31.21 100.837 31.22C100.277 31.23 99.8118 31.445 99.4418 31.865C99.0818 32.275 98.9018 32.78 98.9018 33.38V37.85C98.9018 37.95 98.8518 38 98.7518 38H98.2568C98.1568 38 98.1068 37.95 98.1068 37.85V30.59C98.1068 30.49 98.1568 30.44 98.2568 30.44H98.7518C98.8518 30.44 98.9018 30.49 98.9018 30.59V31.61C98.9018 31.64 98.9068 31.66 98.9168 31.67C98.9368 31.67 98.9518 31.655 98.9618 31.625C99.1718 31.235 99.4418 30.93 99.7718 30.71C100.112 30.49 100.507 30.38 100.957 30.38ZM105.988 30.32C106.868 30.32 107.538 30.55 107.998 31.01C108.458 31.46 108.688 32.07 108.688 32.84V37.85C108.688 37.95 108.638 38 108.538 38H108.043C107.943 38 107.893 37.95 107.893 37.85V37.145C107.893 37.125 107.883 37.11 107.863 37.1C107.853 37.09 107.838 37.095 107.818 37.115C107.558 37.445 107.218 37.695 106.798 37.865C106.388 38.035 105.928 38.12 105.418 38.12C104.728 38.12 104.143 37.945 103.663 37.595C103.183 37.245 102.943 36.71 102.943 35.99C102.943 35.25 103.218 34.665 103.768 34.235C104.318 33.805 105.073 33.59 106.033 33.59H107.833C107.873 33.59 107.893 33.57 107.893 33.53V32.855C107.893 32.295 107.733 31.85 107.413 31.52C107.103 31.19 106.623 31.025 105.973 31.025C105.463 31.025 105.043 31.13 104.713 31.34C104.383 31.55 104.178 31.83 104.098 32.18C104.068 32.28 104.008 32.325 103.918 32.315L103.393 32.24C103.283 32.22 103.238 32.18 103.258 32.12C103.348 31.58 103.638 31.145 104.128 30.815C104.628 30.485 105.248 30.32 105.988 30.32ZM105.553 37.43C106.183 37.43 106.728 37.275 107.188 36.965C107.658 36.655 107.893 36.225 107.893 35.675V34.31C107.893 34.27 107.873 34.25 107.833 34.25H106.108C105.398 34.25 104.823 34.4 104.383 34.7C103.953 35 103.738 35.415 103.738 35.945C103.738 36.435 103.908 36.805 104.248 37.055C104.588 37.305 105.023 37.43 105.553 37.43ZM114.177 30.965C114.177 31.065 114.127 31.115 114.027 31.115H112.272C112.232 31.115 112.212 31.135 112.212 31.175V35.915C112.212 36.425 112.327 36.785 112.557 36.995C112.787 37.195 113.157 37.295 113.667 37.295H114.012C114.112 37.295 114.162 37.345 114.162 37.445V37.85C114.162 37.95 114.112 38 114.012 38L113.562 38.015C112.862 38.015 112.332 37.88 111.972 37.61C111.622 37.34 111.442 36.845 111.432 36.125V31.175C111.432 31.135 111.412 31.115 111.372 31.115H110.472C110.372 31.115 110.322 31.065 110.322 30.965V30.59C110.322 30.49 110.372 30.44 110.472 30.44H111.372C111.412 30.44 111.432 30.42 111.432 30.38V28.67C111.432 28.57 111.482 28.52 111.582 28.52H112.062C112.162 28.52 112.212 28.57 112.212 28.67V30.38C112.212 30.42 112.232 30.44 112.272 30.44H114.027C114.127 30.44 114.177 30.49 114.177 30.59V30.965ZM118.988 37.415C119.458 37.415 119.858 37.31 120.188 37.1C120.528 36.88 120.793 36.58 120.983 36.2C121.033 36.11 121.098 36.085 121.178 36.125L121.568 36.32C121.658 36.37 121.683 36.435 121.643 36.515C121.423 37.005 121.073 37.395 120.593 37.685C120.123 37.975 119.568 38.12 118.928 38.12C118.228 38.12 117.633 37.95 117.143 37.61C116.653 37.27 116.318 36.805 116.138 36.215C116.058 35.965 116.003 35.685 115.973 35.375C115.943 35.065 115.928 34.675 115.928 34.205C115.928 33.715 115.933 33.345 115.943 33.095C115.963 32.845 115.998 32.615 116.048 32.405C116.208 31.775 116.533 31.27 117.023 30.89C117.523 30.51 118.133 30.32 118.853 30.32C119.673 30.32 120.328 30.535 120.818 30.965C121.308 31.385 121.613 31.97 121.733 32.72C121.763 32.91 121.783 33.135 121.793 33.395C121.803 33.645 121.808 33.96 121.808 34.34C121.808 34.44 121.758 34.49 121.658 34.49H116.768C116.728 34.49 116.708 34.51 116.708 34.55C116.708 35.19 116.733 35.615 116.783 35.825C116.893 36.315 117.138 36.705 117.518 36.995C117.908 37.275 118.398 37.415 118.988 37.415ZM116.813 32.585C116.763 32.775 116.728 33.165 116.708 33.755C116.708 33.795 116.728 33.815 116.768 33.815H120.953C120.993 33.815 121.013 33.795 121.013 33.755C121.013 33.255 120.988 32.88 120.938 32.63C120.828 32.15 120.588 31.765 120.218 31.475C119.848 31.175 119.393 31.025 118.853 31.025C118.313 31.025 117.863 31.17 117.503 31.46C117.143 31.74 116.913 32.115 116.813 32.585ZM129.63 30.32C130.51 30.32 131.18 30.55 131.64 31.01C132.1 31.46 132.33 32.07 132.33 32.84V37.85C132.33 37.95 132.28 38 132.18 38H131.685C131.585 38 131.535 37.95 131.535 37.85V37.145C131.535 37.125 131.525 37.11 131.505 37.1C131.495 37.09 131.48 37.095 131.46 37.115C131.2 37.445 130.86 37.695 130.44 37.865C130.03 38.035 129.57 38.12 129.06 38.12C128.37 38.12 127.785 37.945 127.305 37.595C126.825 37.245 126.585 36.71 126.585 35.99C126.585 35.25 126.86 34.665 127.41 34.235C127.96 33.805 128.715 33.59 129.675 33.59H131.475C131.515 33.59 131.535 33.57 131.535 33.53V32.855C131.535 32.295 131.375 31.85 131.055 31.52C130.745 31.19 130.265 31.025 129.615 31.025C129.105 31.025 128.685 31.13 128.355 31.34C128.025 31.55 127.82 31.83 127.74 32.18C127.71 32.28 127.65 32.325 127.56 32.315L127.035 32.24C126.925 32.22 126.88 32.18 126.9 32.12C126.99 31.58 127.28 31.145 127.77 30.815C128.27 30.485 128.89 30.32 129.63 30.32ZM129.195 37.43C129.825 37.43 130.37 37.275 130.83 36.965C131.3 36.655 131.535 36.225 131.535 35.675V34.31C131.535 34.27 131.515 34.25 131.475 34.25H129.75C129.04 34.25 128.465 34.4 128.025 34.7C127.595 35 127.38 35.415 127.38 35.945C127.38 36.435 127.55 36.805 127.89 37.055C128.23 37.305 128.665 37.43 129.195 37.43ZM137.683 30.335C138.453 30.335 139.073 30.57 139.543 31.04C140.023 31.51 140.263 32.13 140.263 32.9V37.85C140.263 37.95 140.213 38 140.113 38H139.618C139.518 38 139.468 37.95 139.468 37.85V33.05C139.468 32.46 139.288 31.98 138.928 31.61C138.568 31.23 138.098 31.04 137.518 31.04C136.918 31.04 136.433 31.225 136.063 31.595C135.693 31.955 135.508 32.43 135.508 33.02V37.85C135.508 37.95 135.458 38 135.358 38H134.863C134.763 38 134.713 37.95 134.713 37.85V30.59C134.713 30.49 134.763 30.44 134.863 30.44H135.358C135.458 30.44 135.508 30.49 135.508 30.59V31.325C135.508 31.355 135.513 31.375 135.523 31.385C135.543 31.385 135.558 31.375 135.568 31.355C135.788 31.025 136.078 30.775 136.438 30.605C136.798 30.425 137.213 30.335 137.683 30.335ZM148.278 30.32C149.158 30.32 149.828 30.55 150.288 31.01C150.748 31.46 150.978 32.07 150.978 32.84V37.85C150.978 37.95 150.928 38 150.828 38H150.333C150.233 38 150.183 37.95 150.183 37.85V37.145C150.183 37.125 150.173 37.11 150.153 37.1C150.143 37.09 150.128 37.095 150.108 37.115C149.848 37.445 149.508 37.695 149.088 37.865C148.678 38.035 148.218 38.12 147.708 38.12C147.018 38.12 146.433 37.945 145.953 37.595C145.473 37.245 145.233 36.71 145.233 35.99C145.233 35.25 145.508 34.665 146.058 34.235C146.608 33.805 147.363 33.59 148.323 33.59H150.123C150.163 33.59 150.183 33.57 150.183 33.53V32.855C150.183 32.295 150.023 31.85 149.703 31.52C149.393 31.19 148.913 31.025 148.263 31.025C147.753 31.025 147.333 31.13 147.003 31.34C146.673 31.55 146.468 31.83 146.388 32.18C146.358 32.28 146.298 32.325 146.208 32.315L145.683 32.24C145.573 32.22 145.528 32.18 145.548 32.12C145.638 31.58 145.928 31.145 146.418 30.815C146.918 30.485 147.538 30.32 148.278 30.32ZM147.843 37.43C148.473 37.43 149.018 37.275 149.478 36.965C149.948 36.655 150.183 36.225 150.183 35.675V34.31C150.183 34.27 150.163 34.25 150.123 34.25H148.398C147.688 34.25 147.113 34.4 146.673 34.7C146.243 35 146.028 35.415 146.028 35.945C146.028 36.435 146.198 36.805 146.538 37.055C146.878 37.305 147.313 37.43 147.843 37.43ZM156.331 30.335C157.101 30.335 157.721 30.57 158.191 31.04C158.671 31.51 158.911 32.13 158.911 32.9V37.85C158.911 37.95 158.861 38 158.761 38H158.266C158.166 38 158.116 37.95 158.116 37.85V33.05C158.116 32.46 157.936 31.98 157.576 31.61C157.216 31.23 156.746 31.04 156.166 31.04C155.566 31.04 155.081 31.225 154.711 31.595C154.341 31.955 154.156 32.43 154.156 33.02V37.85C154.156 37.95 154.106 38 154.006 38H153.511C153.411 38 153.361 37.95 153.361 37.85V30.59C153.361 30.49 153.411 30.44 153.511 30.44H154.006C154.106 30.44 154.156 30.49 154.156 30.59V31.325C154.156 31.355 154.161 31.375 154.171 31.385C154.191 31.385 154.206 31.375 154.216 31.355C154.436 31.025 154.726 30.775 155.086 30.605C155.446 30.425 155.861 30.335 156.331 30.335ZM164.567 30.965C164.567 31.065 164.517 31.115 164.417 31.115H162.662C162.622 31.115 162.602 31.135 162.602 31.175V35.915C162.602 36.425 162.717 36.785 162.947 36.995C163.177 37.195 163.547 37.295 164.057 37.295H164.402C164.502 37.295 164.552 37.345 164.552 37.445V37.85C164.552 37.95 164.502 38 164.402 38L163.952 38.015C163.252 38.015 162.722 37.88 162.362 37.61C162.012 37.34 161.832 36.845 161.822 36.125V31.175C161.822 31.135 161.802 31.115 161.762 31.115H160.862C160.762 31.115 160.712 31.065 160.712 30.965V30.59C160.712 30.49 160.762 30.44 160.862 30.44H161.762C161.802 30.44 161.822 30.42 161.822 30.38V28.67C161.822 28.57 161.872 28.52 161.972 28.52H162.452C162.552 28.52 162.602 28.57 162.602 28.67V30.38C162.602 30.42 162.622 30.44 162.662 30.44H164.417C164.517 30.44 164.567 30.49 164.567 30.59V30.965ZM167.423 28.925C167.203 28.925 167.023 28.855 166.883 28.715C166.743 28.575 166.673 28.395 166.673 28.175C166.673 27.955 166.743 27.775 166.883 27.635C167.023 27.495 167.203 27.425 167.423 27.425C167.643 27.425 167.823 27.495 167.963 27.635C168.103 27.775 168.173 27.955 168.173 28.175C168.173 28.395 168.103 28.575 167.963 28.715C167.823 28.855 167.643 28.925 167.423 28.925ZM167.138 37.985C167.038 37.985 166.988 37.935 166.988 37.835V30.575C166.988 30.475 167.038 30.425 167.138 30.425H167.633C167.733 30.425 167.783 30.475 167.783 30.575V37.835C167.783 37.935 167.733 37.985 167.633 37.985H167.138ZM170.121 33.635C170.021 33.635 169.971 33.585 169.971 33.485V33.08C169.971 32.98 170.021 32.93 170.121 32.93H174.426C174.526 32.93 174.576 32.98 174.576 33.08V33.485C174.576 33.585 174.526 33.635 174.426 33.635H170.121ZM176.925 28.925C176.705 28.925 176.525 28.855 176.385 28.715C176.245 28.575 176.175 28.395 176.175 28.175C176.175 27.955 176.245 27.775 176.385 27.635C176.525 27.495 176.705 27.425 176.925 27.425C177.145 27.425 177.325 27.495 177.465 27.635C177.605 27.775 177.675 27.955 177.675 28.175C177.675 28.395 177.605 28.575 177.465 28.715C177.325 28.855 177.145 28.925 176.925 28.925ZM174.915 41.135C174.815 41.135 174.765 41.085 174.765 40.985V40.595C174.765 40.495 174.815 40.445 174.915 40.445C175.445 40.435 175.845 40.29 176.115 40.01C176.395 39.73 176.535 39.335 176.535 38.825L176.52 30.59C176.52 30.49 176.57 30.44 176.67 30.44H177.165C177.265 30.44 177.315 30.49 177.315 30.59V38.825C177.315 39.595 177.115 40.17 176.715 40.55C176.325 40.93 175.725 41.125 174.915 41.135ZM182.973 37.415C183.443 37.415 183.843 37.31 184.173 37.1C184.513 36.88 184.778 36.58 184.968 36.2C185.018 36.11 185.083 36.085 185.163 36.125L185.553 36.32C185.643 36.37 185.668 36.435 185.628 36.515C185.408 37.005 185.058 37.395 184.578 37.685C184.108 37.975 183.553 38.12 182.913 38.12C182.213 38.12 181.618 37.95 181.128 37.61C180.638 37.27 180.303 36.805 180.123 36.215C180.043 35.965 179.988 35.685 179.958 35.375C179.928 35.065 179.913 34.675 179.913 34.205C179.913 33.715 179.918 33.345 179.928 33.095C179.948 32.845 179.983 32.615 180.033 32.405C180.193 31.775 180.518 31.27 181.008 30.89C181.508 30.51 182.118 30.32 182.838 30.32C183.658 30.32 184.313 30.535 184.803 30.965C185.293 31.385 185.598 31.97 185.718 32.72C185.748 32.91 185.768 33.135 185.778 33.395C185.788 33.645 185.793 33.96 185.793 34.34C185.793 34.44 185.743 34.49 185.643 34.49H180.753C180.713 34.49 180.693 34.51 180.693 34.55C180.693 35.19 180.718 35.615 180.768 35.825C180.878 36.315 181.123 36.705 181.503 36.995C181.893 37.275 182.383 37.415 182.973 37.415ZM180.798 32.585C180.748 32.775 180.713 33.165 180.693 33.755C180.693 33.795 180.713 33.815 180.753 33.815H184.938C184.978 33.815 184.998 33.795 184.998 33.755C184.998 33.255 184.973 32.88 184.923 32.63C184.813 32.15 184.573 31.765 184.203 31.475C183.833 31.175 183.378 31.025 182.838 31.025C182.298 31.025 181.848 31.17 181.488 31.46C181.128 31.74 180.898 32.115 180.798 32.585ZM191.184 30.965C191.184 31.065 191.134 31.115 191.034 31.115H189.279C189.239 31.115 189.219 31.135 189.219 31.175V35.915C189.219 36.425 189.334 36.785 189.564 36.995C189.794 37.195 190.164 37.295 190.674 37.295H191.019C191.119 37.295 191.169 37.345 191.169 37.445V37.85C191.169 37.95 191.119 38 191.019 38L190.569 38.015C189.869 38.015 189.339 37.88 188.979 37.61C188.629 37.34 188.449 36.845 188.439 36.125V31.175C188.439 31.135 188.419 31.115 188.379 31.115H187.479C187.379 31.115 187.329 31.065 187.329 30.965V30.59C187.329 30.49 187.379 30.44 187.479 30.44H188.379C188.419 30.44 188.439 30.42 188.439 30.38V28.67C188.439 28.57 188.489 28.52 188.589 28.52H189.069C189.169 28.52 189.219 28.57 189.219 28.67V30.38C189.219 30.42 189.239 30.44 189.279 30.44H191.034C191.134 30.44 191.184 30.49 191.184 30.59V30.965ZM193.574 38C193.474 38 193.424 37.95 193.424 37.85V27.65C193.424 27.55 193.474 27.5 193.574 27.5H194.069C194.169 27.5 194.219 27.55 194.219 27.65V37.85C194.219 37.95 194.169 38 194.069 38H193.574ZM199.313 30.32C200.193 30.32 200.863 30.55 201.323 31.01C201.783 31.46 202.013 32.07 202.013 32.84V37.85C202.013 37.95 201.963 38 201.863 38H201.368C201.268 38 201.218 37.95 201.218 37.85V37.145C201.218 37.125 201.208 37.11 201.188 37.1C201.178 37.09 201.163 37.095 201.143 37.115C200.883 37.445 200.543 37.695 200.123 37.865C199.713 38.035 199.253 38.12 198.743 38.12C198.053 38.12 197.468 37.945 196.988 37.595C196.508 37.245 196.268 36.71 196.268 35.99C196.268 35.25 196.543 34.665 197.093 34.235C197.643 33.805 198.398 33.59 199.358 33.59H201.158C201.198 33.59 201.218 33.57 201.218 33.53V32.855C201.218 32.295 201.058 31.85 200.738 31.52C200.428 31.19 199.948 31.025 199.298 31.025C198.788 31.025 198.368 31.13 198.038 31.34C197.708 31.55 197.503 31.83 197.423 32.18C197.393 32.28 197.333 32.325 197.243 32.315L196.718 32.24C196.608 32.22 196.563 32.18 196.583 32.12C196.673 31.58 196.963 31.145 197.453 30.815C197.953 30.485 198.573 30.32 199.313 30.32ZM198.878 37.43C199.508 37.43 200.053 37.275 200.513 36.965C200.983 36.655 201.218 36.225 201.218 35.675V34.31C201.218 34.27 201.198 34.25 201.158 34.25H199.433C198.723 34.25 198.148 34.4 197.708 34.7C197.278 35 197.063 35.415 197.063 35.945C197.063 36.435 197.233 36.805 197.573 37.055C197.913 37.305 198.348 37.43 198.878 37.43ZM209.076 30.59C209.076 30.49 209.126 30.44 209.226 30.44H209.721C209.821 30.44 209.871 30.49 209.871 30.59V37.835C209.871 38.965 209.531 39.785 208.851 40.295C208.171 40.805 207.211 41.035 205.971 40.985C205.871 40.975 205.821 40.92 205.821 40.82L205.836 40.385C205.836 40.285 205.886 40.235 205.986 40.235C207.056 40.275 207.836 40.095 208.326 39.695C208.826 39.305 209.076 38.68 209.076 37.82V37.07C209.076 37.04 209.066 37.025 209.046 37.025C209.036 37.015 209.021 37.02 209.001 37.04C208.551 37.73 207.866 38.075 206.946 38.075C206.296 38.075 205.726 37.9 205.236 37.55C204.746 37.19 204.421 36.7 204.261 36.08C204.151 35.67 204.096 35.055 204.096 34.235C204.096 33.355 204.156 32.71 204.276 32.3C204.436 31.71 204.751 31.235 205.221 30.875C205.691 30.505 206.256 30.32 206.916 30.32C207.836 30.32 208.531 30.66 209.001 31.34C209.011 31.36 209.026 31.365 209.046 31.355C209.066 31.345 209.076 31.33 209.076 31.31V30.59ZM209.001 35.795C209.031 35.645 209.051 35.46 209.061 35.24C209.071 35.02 209.076 34.68 209.076 34.22C209.076 33.76 209.071 33.42 209.061 33.2C209.051 32.98 209.031 32.785 209.001 32.615C208.921 32.155 208.706 31.775 208.356 31.475C208.016 31.175 207.586 31.025 207.066 31.025C206.546 31.025 206.106 31.175 205.746 31.475C205.396 31.775 205.156 32.155 205.026 32.615C204.936 32.915 204.891 33.445 204.891 34.205C204.891 34.945 204.936 35.475 205.026 35.795C205.136 36.255 205.371 36.635 205.731 36.935C206.101 37.235 206.546 37.385 207.066 37.385C207.606 37.385 208.041 37.235 208.371 36.935C208.711 36.635 208.921 36.255 209.001 35.795ZM217.708 38.075C217.168 38.075 216.688 37.99 216.268 37.82C215.858 37.64 215.538 37.4 215.308 37.1C215.078 36.8 214.963 36.47 214.963 36.11V35.915C214.963 35.815 215.013 35.765 215.113 35.765H215.578C215.678 35.765 215.728 35.815 215.728 35.915V36.08C215.728 36.45 215.913 36.77 216.283 37.04C216.653 37.3 217.123 37.43 217.693 37.43C218.253 37.43 218.708 37.295 219.058 37.025C219.408 36.755 219.583 36.42 219.583 36.02C219.583 35.74 219.493 35.51 219.313 35.33C219.133 35.15 218.918 35.015 218.668 34.925C218.428 34.825 218.063 34.7 217.573 34.55C217.013 34.38 216.563 34.22 216.223 34.07C215.883 33.92 215.593 33.71 215.353 33.44C215.123 33.16 215.008 32.81 215.008 32.39C215.008 31.78 215.248 31.295 215.728 30.935C216.218 30.565 216.858 30.38 217.648 30.38C218.178 30.38 218.643 30.47 219.043 30.65C219.453 30.82 219.768 31.055 219.988 31.355C220.218 31.655 220.333 31.995 220.333 32.375V32.42C220.333 32.52 220.283 32.57 220.183 32.57H219.718C219.618 32.57 219.568 32.52 219.568 32.42V32.375C219.568 31.995 219.388 31.68 219.028 31.43C218.678 31.17 218.213 31.04 217.633 31.04C217.073 31.04 216.623 31.16 216.283 31.4C215.943 31.63 215.773 31.945 215.773 32.345C215.773 32.725 215.928 33.01 216.238 33.2C216.558 33.39 217.053 33.585 217.723 33.785C218.303 33.955 218.763 34.115 219.103 34.265C219.453 34.415 219.753 34.63 220.003 34.91C220.253 35.18 220.378 35.535 220.378 35.975C220.378 36.605 220.133 37.115 219.643 37.505C219.163 37.885 218.518 38.075 217.708 38.075ZM225.246 38.12C224.536 38.12 223.931 37.935 223.431 37.565C222.941 37.195 222.611 36.7 222.441 36.08C222.311 35.6 222.246 34.975 222.246 34.205C222.246 33.465 222.311 32.845 222.441 32.345C222.601 31.735 222.931 31.245 223.431 30.875C223.931 30.505 224.536 30.32 225.246 30.32C225.956 30.32 226.566 30.5 227.076 30.86C227.596 31.22 227.926 31.67 228.066 32.21C228.106 32.35 228.136 32.49 228.156 32.63V32.66C228.156 32.73 228.111 32.775 228.021 32.795L227.541 32.855H227.511C227.441 32.855 227.396 32.81 227.376 32.72L227.331 32.51C227.241 32.09 227.006 31.74 226.626 31.46C226.246 31.17 225.786 31.025 225.246 31.025C224.696 31.025 224.236 31.17 223.866 31.46C223.506 31.75 223.276 32.135 223.176 32.615C223.086 32.995 223.041 33.53 223.041 34.22C223.041 34.92 223.086 35.45 223.176 35.81C223.276 36.3 223.506 36.69 223.866 36.98C224.236 37.27 224.696 37.415 225.246 37.415C225.786 37.415 226.246 37.275 226.626 36.995C227.016 36.705 227.251 36.345 227.331 35.915L227.346 35.84C227.366 35.73 227.426 35.685 227.526 35.705L227.991 35.78C228.091 35.8 228.136 35.855 228.126 35.945L228.066 36.215C227.926 36.775 227.596 37.235 227.076 37.595C226.566 37.945 225.956 38.12 225.246 38.12ZM233.206 30.335C233.976 30.335 234.596 30.57 235.066 31.04C235.546 31.51 235.786 32.13 235.786 32.9V37.85C235.786 37.95 235.736 38 235.636 38H235.141C235.041 38 234.991 37.95 234.991 37.85V33.05C234.991 32.46 234.811 31.98 234.451 31.61C234.091 31.23 233.621 31.04 233.041 31.04C232.441 31.04 231.956 31.225 231.586 31.595C231.216 31.955 231.031 32.43 231.031 33.02V37.85C231.031 37.95 230.981 38 230.881 38H230.386C230.286 38 230.236 37.95 230.236 37.85V27.65C230.236 27.55 230.286 27.5 230.386 27.5H230.881C230.981 27.5 231.031 27.55 231.031 27.65V31.325C231.031 31.355 231.036 31.375 231.046 31.385C231.066 31.385 231.081 31.375 231.091 31.355C231.311 31.025 231.601 30.775 231.961 30.605C232.321 30.425 232.736 30.335 233.206 30.335ZM240.995 37.415C241.465 37.415 241.865 37.31 242.195 37.1C242.535 36.88 242.8 36.58 242.99 36.2C243.04 36.11 243.105 36.085 243.185 36.125L243.575 36.32C243.665 36.37 243.69 36.435 243.65 36.515C243.43 37.005 243.08 37.395 242.6 37.685C242.13 37.975 241.575 38.12 240.935 38.12C240.235 38.12 239.64 37.95 239.15 37.61C238.66 37.27 238.325 36.805 238.145 36.215C238.065 35.965 238.01 35.685 237.98 35.375C237.95 35.065 237.935 34.675 237.935 34.205C237.935 33.715 237.94 33.345 237.95 33.095C237.97 32.845 238.005 32.615 238.055 32.405C238.215 31.775 238.54 31.27 239.03 30.89C239.53 30.51 240.14 30.32 240.86 30.32C241.68 30.32 242.335 30.535 242.825 30.965C243.315 31.385 243.62 31.97 243.74 32.72C243.77 32.91 243.79 33.135 243.8 33.395C243.81 33.645 243.815 33.96 243.815 34.34C243.815 34.44 243.765 34.49 243.665 34.49H238.775C238.735 34.49 238.715 34.51 238.715 34.55C238.715 35.19 238.74 35.615 238.79 35.825C238.9 36.315 239.145 36.705 239.525 36.995C239.915 37.275 240.405 37.415 240.995 37.415ZM238.82 32.585C238.77 32.775 238.735 33.165 238.715 33.755C238.715 33.795 238.735 33.815 238.775 33.815H242.96C243 33.815 243.02 33.795 243.02 33.755C243.02 33.255 242.995 32.88 242.945 32.63C242.835 32.15 242.595 31.765 242.225 31.475C241.855 31.175 241.4 31.025 240.86 31.025C240.32 31.025 239.87 31.17 239.51 31.46C239.15 31.74 238.92 32.115 238.82 32.585ZM250.839 27.65C250.839 27.55 250.889 27.5 250.989 27.5H251.484C251.584 27.5 251.634 27.55 251.634 27.65V37.85C251.634 37.95 251.584 38 251.484 38H250.989C250.889 38 250.839 37.95 250.839 37.85V37.115C250.839 37.085 250.829 37.07 250.809 37.07C250.799 37.06 250.784 37.065 250.764 37.085C250.554 37.415 250.274 37.67 249.924 37.85C249.574 38.03 249.179 38.12 248.739 38.12C248.059 38.12 247.484 37.94 247.014 37.58C246.544 37.22 246.224 36.735 246.054 36.125C245.984 35.895 245.939 35.64 245.919 35.36C245.899 35.07 245.889 34.695 245.889 34.235C245.889 33.785 245.899 33.415 245.919 33.125C245.939 32.835 245.979 32.575 246.039 32.345C246.189 31.725 246.499 31.235 246.969 30.875C247.449 30.505 248.039 30.32 248.739 30.32C249.179 30.32 249.574 30.41 249.924 30.59C250.274 30.77 250.554 31.025 250.764 31.355C250.774 31.385 250.789 31.4 250.809 31.4C250.829 31.39 250.839 31.37 250.839 31.34V27.65ZM250.644 36.005C250.714 35.815 250.759 35.6 250.779 35.36C250.809 35.12 250.824 34.745 250.824 34.235C250.824 33.705 250.809 33.32 250.779 33.08C250.749 32.83 250.699 32.605 250.629 32.405C250.519 31.995 250.304 31.665 249.984 31.415C249.674 31.155 249.289 31.025 248.829 31.025C248.359 31.025 247.954 31.155 247.614 31.415C247.274 31.665 247.044 31.99 246.924 32.39C246.834 32.58 246.769 32.8 246.729 33.05C246.699 33.29 246.684 33.68 246.684 34.22C246.684 34.74 246.699 35.12 246.729 35.36C246.759 35.59 246.809 35.805 246.879 36.005C246.979 36.425 247.204 36.765 247.554 37.025C247.904 37.285 248.324 37.415 248.814 37.415C249.284 37.415 249.674 37.285 249.984 37.025C250.304 36.765 250.524 36.425 250.644 36.005ZM258.879 30.59C258.879 30.49 258.929 30.44 259.029 30.44H259.509C259.609 30.44 259.659 30.49 259.659 30.59V37.85C259.659 37.95 259.609 38 259.509 38H259.029C258.929 38 258.879 37.95 258.879 37.85V37.115C258.879 37.085 258.869 37.07 258.849 37.07C258.829 37.06 258.814 37.07 258.804 37.1C258.594 37.43 258.309 37.68 257.949 37.85C257.599 38.02 257.184 38.105 256.704 38.105C255.964 38.105 255.349 37.885 254.859 37.445C254.369 37.005 254.124 36.4 254.124 35.63V30.59C254.124 30.49 254.174 30.44 254.274 30.44H254.754C254.854 30.44 254.904 30.49 254.904 30.59V35.42C254.904 36.02 255.079 36.5 255.429 36.86C255.789 37.22 256.264 37.4 256.854 37.4C257.464 37.4 257.954 37.22 258.324 36.86C258.694 36.49 258.879 36.01 258.879 35.42V30.59ZM262.422 38C262.322 38 262.272 37.95 262.272 37.85V27.65C262.272 27.55 262.322 27.5 262.422 27.5H262.917C263.017 27.5 263.067 27.55 263.067 27.65V37.85C263.067 37.95 263.017 38 262.917 38H262.422ZM268.476 37.415C268.946 37.415 269.346 37.31 269.676 37.1C270.016 36.88 270.281 36.58 270.471 36.2C270.521 36.11 270.586 36.085 270.666 36.125L271.056 36.32C271.146 36.37 271.171 36.435 271.131 36.515C270.911 37.005 270.561 37.395 270.081 37.685C269.611 37.975 269.056 38.12 268.416 38.12C267.716 38.12 267.121 37.95 266.631 37.61C266.141 37.27 265.806 36.805 265.626 36.215C265.546 35.965 265.491 35.685 265.461 35.375C265.431 35.065 265.416 34.675 265.416 34.205C265.416 33.715 265.421 33.345 265.431 33.095C265.451 32.845 265.486 32.615 265.536 32.405C265.696 31.775 266.021 31.27 266.511 30.89C267.011 30.51 267.621 30.32 268.341 30.32C269.161 30.32 269.816 30.535 270.306 30.965C270.796 31.385 271.101 31.97 271.221 32.72C271.251 32.91 271.271 33.135 271.281 33.395C271.291 33.645 271.296 33.96 271.296 34.34C271.296 34.44 271.246 34.49 271.146 34.49H266.256C266.216 34.49 266.196 34.51 266.196 34.55C266.196 35.19 266.221 35.615 266.271 35.825C266.381 36.315 266.626 36.705 267.006 36.995C267.396 37.275 267.886 37.415 268.476 37.415ZM266.301 32.585C266.251 32.775 266.216 33.165 266.196 33.755C266.196 33.795 266.216 33.815 266.256 33.815H270.441C270.481 33.815 270.501 33.795 270.501 33.755C270.501 33.255 270.476 32.88 270.426 32.63C270.316 32.15 270.076 31.765 269.706 31.475C269.336 31.175 268.881 31.025 268.341 31.025C267.801 31.025 267.351 31.17 266.991 31.46C266.631 31.74 266.401 32.115 266.301 32.585ZM73.805 48.335C74.535 48.335 75.12 48.555 75.56 48.995C76 49.435 76.22 50.04 76.22 50.81V55.85C76.22 55.95 76.17 56 76.07 56H75.59C75.49 56 75.44 55.95 75.44 55.85V50.96C75.44 50.37 75.265 49.905 74.915 49.565C74.575 49.215 74.13 49.04 73.58 49.04C73 49.04 72.53 49.21 72.17 49.55C71.82 49.89 71.645 50.35 71.645 50.93V55.85C71.645 55.95 71.595 56 71.495 56H71.015C70.915 56 70.865 55.95 70.865 55.85V50.96C70.865 50.37 70.695 49.905 70.355 49.565C70.015 49.215 69.57 49.04 69.02 49.04C68.43 49.04 67.96 49.21 67.61 49.55C67.27 49.89 67.1 50.35 67.1 50.93V55.85C67.1 55.95 67.05 56 66.95 56H66.455C66.355 56 66.305 55.95 66.305 55.85V48.59C66.305 48.49 66.355 48.44 66.455 48.44H66.95C67.05 48.44 67.1 48.49 67.1 48.59V49.265C67.1 49.285 67.11 49.3 67.13 49.31C67.15 49.32 67.165 49.315 67.175 49.295C67.385 48.975 67.665 48.735 68.015 48.575C68.375 48.415 68.78 48.335 69.23 48.335C69.75 48.335 70.195 48.45 70.565 48.68C70.945 48.9 71.23 49.215 71.42 49.625C71.44 49.665 71.465 49.67 71.495 49.64C71.705 49.21 72.01 48.885 72.41 48.665C72.81 48.445 73.275 48.335 73.805 48.335ZM81.2172 48.32C82.0972 48.32 82.7672 48.55 83.2272 49.01C83.6872 49.46 83.9172 50.07 83.9172 50.84V55.85C83.9172 55.95 83.8672 56 83.7672 56H83.2722C83.1722 56 83.1222 55.95 83.1222 55.85V55.145C83.1222 55.125 83.1122 55.11 83.0922 55.1C83.0822 55.09 83.0672 55.095 83.0472 55.115C82.7872 55.445 82.4472 55.695 82.0272 55.865C81.6172 56.035 81.1572 56.12 80.6472 56.12C79.9572 56.12 79.3722 55.945 78.8922 55.595C78.4122 55.245 78.1722 54.71 78.1722 53.99C78.1722 53.25 78.4472 52.665 78.9972 52.235C79.5472 51.805 80.3022 51.59 81.2622 51.59H83.0622C83.1022 51.59 83.1222 51.57 83.1222 51.53V50.855C83.1222 50.295 82.9622 49.85 82.6422 49.52C82.3322 49.19 81.8522 49.025 81.2022 49.025C80.6922 49.025 80.2722 49.13 79.9422 49.34C79.6122 49.55 79.4072 49.83 79.3272 50.18C79.2972 50.28 79.2372 50.325 79.1472 50.315L78.6222 50.24C78.5122 50.22 78.4672 50.18 78.4872 50.12C78.5772 49.58 78.8672 49.145 79.3572 48.815C79.8572 48.485 80.4772 48.32 81.2172 48.32ZM80.7822 55.43C81.4122 55.43 81.9572 55.275 82.4172 54.965C82.8872 54.655 83.1222 54.225 83.1222 53.675V52.31C83.1222 52.27 83.1022 52.25 83.0622 52.25H81.3372C80.6272 52.25 80.0522 52.4 79.6122 52.7C79.1822 53 78.9672 53.415 78.9672 53.945C78.9672 54.435 79.1372 54.805 79.4772 55.055C79.8172 55.305 80.2522 55.43 80.7822 55.43ZM91.0101 45.65C91.0101 45.55 91.0601 45.5 91.1601 45.5H91.6551C91.7551 45.5 91.8051 45.55 91.8051 45.65V55.85C91.8051 55.95 91.7551 56 91.6551 56H91.1601C91.0601 56 91.0101 55.95 91.0101 55.85V55.115C91.0101 55.085 91.0001 55.07 90.9801 55.07C90.9701 55.06 90.9551 55.065 90.9351 55.085C90.7251 55.415 90.4451 55.67 90.0951 55.85C89.7451 56.03 89.3501 56.12 88.9101 56.12C88.2301 56.12 87.6551 55.94 87.1851 55.58C86.7151 55.22 86.3951 54.735 86.2251 54.125C86.1551 53.895 86.1101 53.64 86.0901 53.36C86.0701 53.07 86.0601 52.695 86.0601 52.235C86.0601 51.785 86.0701 51.415 86.0901 51.125C86.1101 50.835 86.1501 50.575 86.2101 50.345C86.3601 49.725 86.6701 49.235 87.1401 48.875C87.6201 48.505 88.2101 48.32 88.9101 48.32C89.3501 48.32 89.7451 48.41 90.0951 48.59C90.4451 48.77 90.7251 49.025 90.9351 49.355C90.9451 49.385 90.9601 49.4 90.9801 49.4C91.0001 49.39 91.0101 49.37 91.0101 49.34V45.65ZM90.8151 54.005C90.8851 53.815 90.9301 53.6 90.9501 53.36C90.9801 53.12 90.9951 52.745 90.9951 52.235C90.9951 51.705 90.9801 51.32 90.9501 51.08C90.9201 50.83 90.8701 50.605 90.8001 50.405C90.6901 49.995 90.4751 49.665 90.1551 49.415C89.8451 49.155 89.4601 49.025 89.0001 49.025C88.5301 49.025 88.1251 49.155 87.7851 49.415C87.4451 49.665 87.2151 49.99 87.0951 50.39C87.0051 50.58 86.9401 50.8 86.9001 51.05C86.8701 51.29 86.8551 51.68 86.8551 52.22C86.8551 52.74 86.8701 53.12 86.9001 53.36C86.9301 53.59 86.9801 53.805 87.0501 54.005C87.1501 54.425 87.3751 54.765 87.7251 55.025C88.0751 55.285 88.4951 55.415 88.9851 55.415C89.4551 55.415 89.8451 55.285 90.1551 55.025C90.4751 54.765 90.6951 54.425 90.8151 54.005ZM97.2354 55.415C97.7054 55.415 98.1054 55.31 98.4354 55.1C98.7754 54.88 99.0404 54.58 99.2304 54.2C99.2804 54.11 99.3454 54.085 99.4254 54.125L99.8154 54.32C99.9054 54.37 99.9304 54.435 99.8904 54.515C99.6704 55.005 99.3204 55.395 98.8404 55.685C98.3704 55.975 97.8154 56.12 97.1754 56.12C96.4754 56.12 95.8804 55.95 95.3904 55.61C94.9004 55.27 94.5654 54.805 94.3854 54.215C94.3054 53.965 94.2504 53.685 94.2204 53.375C94.1904 53.065 94.1754 52.675 94.1754 52.205C94.1754 51.715 94.1804 51.345 94.1904 51.095C94.2104 50.845 94.2454 50.615 94.2954 50.405C94.4554 49.775 94.7804 49.27 95.2704 48.89C95.7704 48.51 96.3804 48.32 97.1004 48.32C97.9204 48.32 98.5754 48.535 99.0654 48.965C99.5554 49.385 99.8604 49.97 99.9804 50.72C100.01 50.91 100.03 51.135 100.04 51.395C100.05 51.645 100.055 51.96 100.055 52.34C100.055 52.44 100.005 52.49 99.9054 52.49H95.0154C94.9754 52.49 94.9554 52.51 94.9554 52.55C94.9554 53.19 94.9804 53.615 95.0304 53.825C95.1404 54.315 95.3854 54.705 95.7654 54.995C96.1554 55.275 96.6454 55.415 97.2354 55.415ZM95.0604 50.585C95.0104 50.775 94.9754 51.165 94.9554 51.755C94.9554 51.795 94.9754 51.815 95.0154 51.815H99.2004C99.2404 51.815 99.2604 51.795 99.2604 51.755C99.2604 51.255 99.2354 50.88 99.1854 50.63C99.0754 50.15 98.8354 49.765 98.4654 49.475C98.0954 49.175 97.6404 49.025 97.1004 49.025C96.5604 49.025 96.1104 49.17 95.7504 49.46C95.3904 49.74 95.1604 50.115 95.0604 50.585ZM108.132 46.205C107.542 46.205 107.137 46.345 106.917 46.625C106.707 46.905 106.602 47.36 106.602 47.99V48.38C106.602 48.42 106.622 48.44 106.662 48.44H108.417C108.517 48.44 108.567 48.49 108.567 48.59V49.025C108.567 49.125 108.517 49.175 108.417 49.175H106.662C106.622 49.175 106.602 49.195 106.602 49.235V55.85C106.602 55.95 106.552 56 106.452 56H105.957C105.857 56 105.807 55.95 105.807 55.85V49.235C105.807 49.195 105.787 49.175 105.747 49.175H104.757C104.657 49.175 104.607 49.125 104.607 49.025V48.59C104.607 48.49 104.657 48.44 104.757 48.44H105.747C105.787 48.44 105.807 48.42 105.807 48.38V47.96C105.807 47.37 105.872 46.9 106.002 46.55C106.142 46.2 106.372 45.94 106.692 45.77C107.022 45.59 107.482 45.5 108.072 45.5H108.462C108.562 45.5 108.612 45.55 108.612 45.65V46.055C108.612 46.155 108.562 46.205 108.462 46.205H108.132ZM112.57 56.12C111.87 56.12 111.27 55.935 110.77 55.565C110.27 55.195 109.93 54.7 109.75 54.08C109.64 53.68 109.585 53.055 109.585 52.205C109.585 51.355 109.64 50.735 109.75 50.345C109.93 49.725 110.265 49.235 110.755 48.875C111.255 48.505 111.865 48.32 112.585 48.32C113.285 48.32 113.885 48.505 114.385 48.875C114.895 49.245 115.235 49.735 115.405 50.345C115.465 50.575 115.505 50.835 115.525 51.125C115.545 51.405 115.555 51.765 115.555 52.205C115.555 52.665 115.545 53.035 115.525 53.315C115.505 53.595 115.465 53.85 115.405 54.08C115.235 54.7 114.895 55.195 114.385 55.565C113.885 55.935 113.28 56.12 112.57 56.12ZM112.57 55.415C113.1 55.415 113.55 55.27 113.92 54.98C114.3 54.68 114.545 54.29 114.655 53.81C114.725 53.54 114.76 53.01 114.76 52.22C114.76 51.42 114.73 50.89 114.67 50.63C114.56 50.14 114.315 49.75 113.935 49.46C113.565 49.17 113.11 49.025 112.57 49.025C112.03 49.025 111.575 49.17 111.205 49.46C110.835 49.75 110.595 50.14 110.485 50.63C110.415 50.94 110.38 51.47 110.38 52.22C110.38 52.97 110.415 53.5 110.485 53.81C110.595 54.3 110.835 54.69 111.205 54.98C111.575 55.27 112.03 55.415 112.57 55.415ZM120.776 48.38C121.116 48.38 121.406 48.44 121.646 48.56C121.726 48.59 121.756 48.655 121.736 48.755L121.601 49.235C121.571 49.335 121.506 49.365 121.406 49.325C121.206 49.245 120.956 49.21 120.656 49.22C120.096 49.23 119.631 49.445 119.261 49.865C118.901 50.275 118.721 50.78 118.721 51.38V55.85C118.721 55.95 118.671 56 118.571 56H118.076C117.976 56 117.926 55.95 117.926 55.85V48.59C117.926 48.49 117.976 48.44 118.076 48.44H118.571C118.671 48.44 118.721 48.49 118.721 48.59V49.61C118.721 49.64 118.726 49.66 118.736 49.67C118.756 49.67 118.771 49.655 118.781 49.625C118.991 49.235 119.261 48.93 119.591 48.71C119.931 48.49 120.326 48.38 120.776 48.38ZM125.9 59C125.83 59 125.795 58.95 125.795 58.85V58.46C125.795 58.36 125.845 58.31 125.945 58.31H126.005C126.385 58.3 126.68 58.235 126.89 58.115C127.11 58.005 127.295 57.795 127.445 57.485C127.605 57.175 127.79 56.695 128 56.045C128.02 56.005 128.02 55.975 128 55.955L125.435 48.605L125.42 48.545C125.42 48.475 125.465 48.44 125.555 48.44H126.065C126.155 48.44 126.215 48.48 126.245 48.56L128.375 54.92C128.385 54.94 128.4 54.95 128.42 54.95C128.44 54.95 128.455 54.94 128.465 54.92L130.535 48.56C130.565 48.48 130.625 48.44 130.715 48.44H131.225C131.335 48.44 131.375 48.495 131.345 48.605L128.51 56.765C128.28 57.415 128.065 57.895 127.865 58.205C127.665 58.515 127.425 58.725 127.145 58.835C126.875 58.945 126.495 59 126.005 59H125.9ZM135.598 56.12C134.898 56.12 134.298 55.935 133.798 55.565C133.298 55.195 132.958 54.7 132.778 54.08C132.668 53.68 132.613 53.055 132.613 52.205C132.613 51.355 132.668 50.735 132.778 50.345C132.958 49.725 133.293 49.235 133.783 48.875C134.283 48.505 134.893 48.32 135.613 48.32C136.313 48.32 136.913 48.505 137.413 48.875C137.923 49.245 138.263 49.735 138.433 50.345C138.493 50.575 138.533 50.835 138.553 51.125C138.573 51.405 138.583 51.765 138.583 52.205C138.583 52.665 138.573 53.035 138.553 53.315C138.533 53.595 138.493 53.85 138.433 54.08C138.263 54.7 137.923 55.195 137.413 55.565C136.913 55.935 136.308 56.12 135.598 56.12ZM135.598 55.415C136.128 55.415 136.578 55.27 136.948 54.98C137.328 54.68 137.573 54.29 137.683 53.81C137.753 53.54 137.788 53.01 137.788 52.22C137.788 51.42 137.758 50.89 137.698 50.63C137.588 50.14 137.343 49.75 136.963 49.46C136.593 49.17 136.138 49.025 135.598 49.025C135.058 49.025 134.603 49.17 134.233 49.46C133.863 49.75 133.623 50.14 133.513 50.63C133.443 50.94 133.408 51.47 133.408 52.22C133.408 52.97 133.443 53.5 133.513 53.81C133.623 54.3 133.863 54.69 134.233 54.98C134.603 55.27 135.058 55.415 135.598 55.415ZM145.588 48.59C145.588 48.49 145.638 48.44 145.738 48.44H146.218C146.318 48.44 146.368 48.49 146.368 48.59V55.85C146.368 55.95 146.318 56 146.218 56H145.738C145.638 56 145.588 55.95 145.588 55.85V55.115C145.588 55.085 145.578 55.07 145.558 55.07C145.538 55.06 145.523 55.07 145.513 55.1C145.303 55.43 145.018 55.68 144.658 55.85C144.308 56.02 143.893 56.105 143.413 56.105C142.673 56.105 142.058 55.885 141.568 55.445C141.078 55.005 140.833 54.4 140.833 53.63V48.59C140.833 48.49 140.883 48.44 140.983 48.44H141.463C141.563 48.44 141.613 48.49 141.613 48.59V53.42C141.613 54.02 141.788 54.5 142.138 54.86C142.498 55.22 142.973 55.4 143.563 55.4C144.173 55.4 144.663 55.22 145.033 54.86C145.403 54.49 145.588 54.01 145.588 53.42V48.59Z" fill="white"/>
<defs>
<linearGradient id="paint0_linear" x1="25.8514" y1="35.6571" x2="25.8514" y2="15.7486" gradientUnits="userSpaceOnUse">
<stop stop-color="#808080" stop-opacity="0.25"/>
<stop offset="0.54" stop-color="#808080" stop-opacity="0.12"/>
<stop offset="1" stop-color="#808080" stop-opacity="0.1"/>
</linearGradient>
</defs>
</svg>
