<svg width="375" height="812" viewBox="0 0 375 812" fill="none" xmlns="http://www.w3.org/2000/svg">
<rect width="375" height="812" fill="#333333"/>
<path d="M297.361 251.677C298.113 251.677 298.723 250.932 298.723 250.013C298.723 249.093 298.113 248.348 297.361 248.348C296.61 248.348 296 249.093 296 250.013C296 250.932 296.61 251.677 297.361 251.677Z" fill="#FF6584"/>
<path d="M341.716 341.143C342.468 341.143 343.077 340.398 343.077 339.478C343.077 338.559 342.468 337.814 341.716 337.814C340.964 337.814 340.354 338.559 340.354 339.478C340.354 340.398 340.964 341.143 341.716 341.143Z" fill="#FF6584"/>
<path d="M346.148 251.677C346.9 251.677 347.509 250.932 347.509 250.013C347.509 249.093 346.9 248.348 346.148 248.348C345.396 248.348 344.786 249.093 344.786 250.013C344.786 250.932 345.396 251.677 346.148 251.677Z" fill="#F2F2F2"/>
<path d="M311.082 274.553C311.834 274.553 312.444 273.808 312.444 272.888C312.444 271.969 311.834 271.224 311.082 271.224C310.33 271.224 309.721 271.969 309.721 272.888C309.721 273.808 310.33 274.553 311.082 274.553Z" fill="#F2F2F2"/>
<path opacity="0.2" d="M341.055 274.558C341.921 274.558 342.623 273.7 342.623 272.641C342.623 271.582 341.921 270.723 341.055 270.723C340.189 270.723 339.487 271.582 339.487 272.641C339.487 273.7 340.189 274.558 341.055 274.558Z" fill="black"/>
<path opacity="0.2" d="M355.108 273.602C356.359 273.602 357.373 272.362 357.373 270.832C357.373 269.303 356.359 268.062 355.108 268.062C353.857 268.062 352.843 269.303 352.843 270.832C352.843 272.362 353.857 273.602 355.108 273.602Z" fill="black"/>
<path d="M24.3615 248.025C25.1134 248.025 25.723 247.28 25.723 246.36C25.723 245.441 25.1134 244.696 24.3615 244.696C23.6096 244.696 23 245.441 23 246.36C23 247.28 23.6096 248.025 24.3615 248.025Z" fill="#FF6584"/>
<path d="M68.7157 337.491C69.4676 337.491 70.0772 336.746 70.0772 335.826C70.0772 334.907 69.4676 334.161 68.7157 334.161C67.9638 334.161 67.3542 334.907 67.3542 335.826C67.3542 336.746 67.9638 337.491 68.7157 337.491Z" fill="#FF6584"/>
<path d="M73.148 248.025C73.8999 248.025 74.5095 247.28 74.5095 246.36C74.5095 245.441 73.8999 244.696 73.148 244.696C72.3961 244.696 71.7865 245.441 71.7865 246.36C71.7865 247.28 72.3961 248.025 73.148 248.025Z" fill="#F2F2F2"/>
<path d="M38.0823 270.901C38.8342 270.901 39.4438 270.156 39.4438 269.236C39.4438 268.317 38.8342 267.571 38.0823 267.571C37.3304 267.571 36.7208 268.317 36.7208 269.236C36.7208 270.156 37.3304 270.901 38.0823 270.901Z" fill="#F2F2F2"/>
<path opacity="0.2" d="M68.0552 270.906C68.9213 270.906 69.6234 270.047 69.6234 268.988C69.6234 267.929 68.9213 267.071 68.0552 267.071C67.1891 267.071 66.4871 267.929 66.4871 268.988C66.4871 270.047 67.1891 270.906 68.0552 270.906Z" fill="black"/>
<path opacity="0.2" d="M82.1076 269.95C83.3586 269.95 84.3727 268.71 84.3727 267.18C84.3727 265.65 83.3586 264.41 82.1076 264.41C80.8566 264.41 79.8425 265.65 79.8425 267.18C79.8425 268.71 80.8566 269.95 82.1076 269.95Z" fill="black"/>
<path d="M198 74C206.837 74 214 67.2843 214 59C214 50.7157 206.837 44 198 44C189.163 44 182 50.7157 182 59C182 67.2843 189.163 74 198 74Z" fill="#F2F2F2"/>
<path d="M284.361 48.373C285.113 48.373 285.723 47.6277 285.723 46.7082C285.723 45.7888 285.113 45.0435 284.361 45.0435C283.61 45.0435 283 45.7888 283 46.7082C283 47.6277 283.61 48.373 284.361 48.373Z" fill="#FF6584"/>
<path d="M328.716 137.839C329.468 137.839 330.077 137.094 330.077 136.174C330.077 135.255 329.468 134.509 328.716 134.509C327.964 134.509 327.354 135.255 327.354 136.174C327.354 137.094 327.964 137.839 328.716 137.839Z" fill="#FF6584"/>
<path d="M333.148 48.373C333.9 48.373 334.509 47.6277 334.509 46.7082C334.509 45.7888 333.9 45.0435 333.148 45.0435C332.396 45.0435 331.786 45.7888 331.786 46.7082C331.786 47.6277 332.396 48.373 333.148 48.373Z" fill="#F2F2F2"/>
<path d="M298.082 71.2487C298.834 71.2487 299.444 70.5034 299.444 69.5839C299.444 68.6645 298.834 67.9192 298.082 67.9192C297.33 67.9192 296.721 68.6645 296.721 69.5839C296.721 70.5034 297.33 71.2487 298.082 71.2487Z" fill="#F2F2F2"/>
<path opacity="0.2" d="M328.055 71.2536C328.921 71.2536 329.623 70.3952 329.623 69.3362C329.623 68.2772 328.921 67.4188 328.055 67.4188C327.189 67.4188 326.487 68.2772 326.487 69.3362C326.487 70.3952 327.189 71.2536 328.055 71.2536Z" fill="black"/>
<path opacity="0.2" d="M342.108 70.2974C343.359 70.2974 344.373 69.0574 344.373 67.5278C344.373 65.9982 343.359 64.7581 342.108 64.7581C340.857 64.7581 339.843 65.9982 339.843 67.5278C339.843 69.0574 340.857 70.2974 342.108 70.2974Z" fill="black"/>
<path d="M201.361 98.286C202.113 98.286 202.723 97.5407 202.723 96.6213C202.723 95.7018 202.113 94.9565 201.361 94.9565C200.61 94.9565 200 95.7018 200 96.6213C200 97.5407 200.61 98.286 201.361 98.286Z" fill="#FF6584"/>
<path d="M245.716 187.752C246.468 187.752 247.077 187.007 247.077 186.087C247.077 185.168 246.468 184.422 245.716 184.422C244.964 184.422 244.354 185.168 244.354 186.087C244.354 187.007 244.964 187.752 245.716 187.752Z" fill="#FF6584"/>
<path d="M250.148 98.286C250.9 98.286 251.509 97.5407 251.509 96.6213C251.509 95.7018 250.9 94.9565 250.148 94.9565C249.396 94.9565 248.786 95.7018 248.786 96.6213C248.786 97.5407 249.396 98.286 250.148 98.286Z" fill="#F2F2F2"/>
<path d="M215.082 121.162C215.834 121.162 216.444 120.416 216.444 119.497C216.444 118.578 215.834 117.832 215.082 117.832C214.33 117.832 213.721 118.578 213.721 119.497C213.721 120.416 214.33 121.162 215.082 121.162Z" fill="#F2F2F2"/>
<path opacity="0.2" d="M245.055 121.167C245.921 121.167 246.623 120.308 246.623 119.249C246.623 118.19 245.921 117.332 245.055 117.332C244.189 117.332 243.487 118.19 243.487 119.249C243.487 120.308 244.189 121.167 245.055 121.167Z" fill="black"/>
<path opacity="0.2" d="M259.108 120.21C260.359 120.21 261.373 118.97 261.373 117.441C261.373 115.911 260.359 114.671 259.108 114.671C257.857 114.671 256.843 115.911 256.843 117.441C256.843 118.97 257.857 120.21 259.108 120.21Z" fill="black"/>
<path d="M24.3615 45.9382C25.1134 45.9382 25.723 45.1929 25.723 44.2735C25.723 43.354 25.1134 42.6087 24.3615 42.6087C23.6096 42.6087 23 43.354 23 44.2735C23 45.1929 23.6096 45.9382 24.3615 45.9382Z" fill="#FF6584"/>
<path d="M292.29 135C317.856 135 338.581 114.863 338.581 90.0217C338.581 65.1809 317.856 45.0435 292.29 45.0435C266.725 45.0435 246 65.1809 246 90.0217C246 114.863 266.725 135 292.29 135Z" fill="#FFDC00"/>
<path opacity="0.2" d="M291.652 73.7683C295.411 73.7683 298.459 70.8069 298.459 67.1538C298.459 63.5008 295.411 60.5394 291.652 60.5394C287.892 60.5394 284.844 63.5008 284.844 67.1538C284.844 70.8069 287.892 73.7683 291.652 73.7683Z" fill="black"/>
<path opacity="0.2" d="M291.652 122.936C298.168 122.936 303.451 117.803 303.451 111.471C303.451 105.139 298.168 100.006 291.652 100.006C285.135 100.006 279.852 105.139 279.852 111.471C279.852 117.803 285.135 122.936 291.652 122.936Z" fill="black"/>
<path opacity="0.2" d="M257.388 96.9189C259.017 96.9189 260.338 95.6356 260.338 94.0526C260.338 92.4696 259.017 91.1863 257.388 91.1863C255.758 91.1863 254.438 92.4696 254.438 94.0526C254.438 95.6356 255.758 96.9189 257.388 96.9189Z" fill="black"/>
<path opacity="0.2" d="M307.288 58.7322C308.155 58.7322 308.857 58.05 308.857 57.2085C308.857 56.367 308.155 55.6848 307.288 55.6848C306.422 55.6848 305.72 56.367 305.72 57.2085C305.72 58.05 306.422 58.7322 307.288 58.7322Z" fill="black"/>
<path opacity="0.2" d="M289.609 89.4225C290.737 89.4225 291.652 88.5341 291.652 87.4382C291.652 86.3422 290.737 85.4538 289.609 85.4538C288.481 85.4538 287.567 86.3422 287.567 87.4382C287.567 88.5341 288.481 89.4225 289.609 89.4225Z" fill="black"/>
<path opacity="0.2" d="M327.751 78.1818C328.617 78.1818 329.319 77.4997 329.319 76.6582C329.319 75.8166 328.617 75.1345 327.751 75.1345C326.885 75.1345 326.183 75.8166 326.183 76.6582C326.183 77.4997 326.885 78.1818 327.751 78.1818Z" fill="black"/>
<path opacity="0.2" d="M314.801 94.3991C316.052 94.3991 317.066 93.4137 317.066 92.1982C317.066 90.9827 316.052 89.9973 314.801 89.9973C313.55 89.9973 312.536 90.9827 312.536 92.1982C312.536 93.4137 313.55 94.3991 314.801 94.3991Z" fill="black"/>
<path opacity="0.2" d="M265.103 70.0201C266.732 70.0201 268.053 68.7368 268.053 67.1538C268.053 65.5708 266.732 64.2876 265.103 64.2876C263.474 64.2876 262.153 65.5708 262.153 67.1538C262.153 68.7368 263.474 70.0201 265.103 70.0201Z" fill="black"/>
<path d="M303.723 111.38C298.855 111.374 293.991 111.101 289.155 110.562C274.608 108.957 261.192 105.164 251.378 99.882C241.444 94.5353 236.361 88.2749 237.064 82.2538C237.552 78.0823 241.701 74.3486 249.75 70.8396C249.86 70.792 249.985 70.7886 250.097 70.8303C250.209 70.8719 250.3 70.9552 250.349 71.0618C250.399 71.1684 250.402 71.2896 250.36 71.3989C250.317 71.5081 250.231 71.5964 250.122 71.6444C242.391 75.0147 238.415 78.5177 237.966 82.3533C237.307 87.9969 242.226 93.948 251.818 99.1105C261.53 104.338 274.826 108.093 289.257 109.686C303.688 111.278 317.513 110.515 328.184 107.537C338.723 104.596 344.89 99.8685 345.55 94.2249C345.996 90.4069 343.832 86.3588 339.291 82.5178C339.2 82.441 339.144 82.3323 339.136 82.2156C339.128 82.0989 339.168 81.9838 339.247 81.8955C339.326 81.8073 339.438 81.7532 339.558 81.7451C339.678 81.7371 339.796 81.7757 339.887 81.8525C344.663 85.8926 346.933 90.2054 346.452 94.3243C345.748 100.345 339.349 105.339 328.434 108.385C321.328 110.368 312.845 111.38 303.723 111.38Z" fill="white"/>
<path d="M279.716 87.8263C280.468 87.8263 281.077 87.234 281.077 86.5034C281.077 85.7728 280.468 85.1805 279.716 85.1805C278.964 85.1805 278.354 85.7728 278.354 86.5034C278.354 87.234 278.964 87.8263 279.716 87.8263Z" fill="#FF6584"/>
<path d="M73.148 45.9382C73.8999 45.9382 74.5095 45.1929 74.5095 44.2735C74.5095 43.354 73.8999 42.6087 73.148 42.6087C72.3961 42.6087 71.7865 43.354 71.7865 44.2735C71.7865 45.1929 72.3961 45.9382 73.148 45.9382Z" fill="#F2F2F2"/>
<path d="M38.0823 68.8139C38.8342 68.8139 39.4438 68.0686 39.4438 67.1492C39.4438 66.2298 38.8342 65.4844 38.0823 65.4844C37.3304 65.4844 36.7208 66.2298 36.7208 67.1492C36.7208 68.0686 37.3304 68.8139 38.0823 68.8139Z" fill="#F2F2F2"/>
<path opacity="0.2" d="M275.568 139.191C276.434 139.191 277.136 138.333 277.136 137.274C277.136 136.215 276.434 135.356 275.568 135.356C274.702 135.356 274 136.215 274 137.274C274 138.333 274.702 139.191 275.568 139.191Z" fill="black"/>
<path opacity="0.2" d="M289.621 138.235C290.872 138.235 291.886 136.995 291.886 135.465C291.886 133.936 290.872 132.696 289.621 132.696C288.37 132.696 287.355 133.936 287.355 135.465C287.355 136.995 288.37 138.235 289.621 138.235Z" fill="black"/>
</svg>
