<svg width="175" height="175" viewBox="0 0 175 175" fill="none" xmlns="http://www.w3.org/2000/svg">
<path d="M87.2703 0C39.0715 0 0 39.0715 0 87.2703C0 135.472 39.0715 174.543 87.2703 174.543C87.3469 174.543 87.4234 174.538 87.5 174.538V0.00546875C87.4234 0.00546875 87.3469 0 87.2703 0Z" fill="#30ABB9"/>
<path d="M174.543 87.2703C174.543 39.1481 135.595 0.131274 87.5 0.00549316V174.538C135.595 174.412 174.543 135.395 174.543 87.2703Z" fill="#31A1A9"/>
<path d="M18.8918 70.7711C18.8918 70.7711 20.2754 75.9008 18.7988 78.6789C17.3168 81.457 15.6652 82.4961 16.9613 86.7453C18.2602 91.0109 17.5629 92.8348 19.5508 95.2629C21.5496 97.6965 21.8941 101.169 26.4059 102.482C30.9203 103.791 35.082 110.398 35.5961 115.604C36.1102 120.816 41.4449 148.518 58.3023 150.191C62.7348 150.629 57.266 148.542 55.1852 145.242C55.1852 145.242 52.2375 142.021 52.85 139.33C53.4543 136.639 53.2848 134.9 53.2 134.034C53.1152 133.167 52.0789 131.512 53.9027 132.21C55.7238 132.91 56.1586 128.477 56.0738 127.608C55.9891 126.744 60.2465 125.439 61.0285 124.485C61.8105 123.534 62.5078 121.707 63.9898 118.934C65.4691 116.159 62.5187 112.941 64.9523 110.947C67.3859 108.948 72.7699 110.176 72.5129 107.568C72.2531 104.962 71.9988 102.364 73.6504 101.322C75.3019 100.28 73.9156 95.1535 73.7434 93.4144C73.5738 91.6836 81.1316 88.3039 78.8812 83.2617C76.6309 78.2195 66.9047 77.4293 57.8785 74.8152C48.8496 72.1984 53.9738 70.8148 53.8891 69.9453C53.8016 69.0785 50.4137 70.2898 49.4621 69.5051C48.5051 68.7203 45.902 68.9801 43.1266 67.5008C40.3484 66.0242 41.218 65.9394 40.1762 64.2879C39.1398 62.6363 39.2246 63.5059 35.7492 63.8476C32.2766 64.1922 30.7098 66.098 28.8887 65.4035C27.0648 64.7035 25.2437 64.0062 24.4617 64.9605C23.6715 65.9176 20.4559 68.868 18.8918 70.7711Z" fill="#BFCE66"/>
<path d="M63.4703 2.64417C63.4703 2.64417 18.941 14.6891 8.60234 52.2867C8.60234 52.2867 7.66172 51.3461 10.4836 56.0492C13.3027 60.7496 16.1219 58.8684 16.1219 60.7496C16.1219 62.6309 18.0031 61.6903 18.0031 64.5094C18.0031 67.3285 21.7629 66.3906 23.6414 66.3906C25.5227 66.3906 23.6414 65.45 22.7008 64.5094C21.7602 63.5688 19.8816 61.6903 20.8195 59.809C21.7574 57.9278 20.8195 56.9899 23.6387 54.1707C26.4605 51.3489 25.5199 50.4082 27.4012 49.4676C29.2824 48.527 29.2824 48.527 31.1609 49.4676C33.0395 50.4082 33.9773 52.2867 35.8586 51.3489C37.7398 50.411 39.6184 49.4676 40.559 48.5297C41.4996 47.5918 41.4996 47.5891 38.6777 47.5891C35.8559 47.5891 34.918 46.6485 33.9773 46.6485C33.0367 46.6485 32.0988 48.5297 31.1609 46.6485C30.223 44.7672 28.3418 43.8293 28.3418 43.8293C28.3418 43.8293 22.7008 44.7699 23.6387 41.0102C24.582 37.2532 23.6387 41.0102 24.582 37.2531C25.5227 33.4906 22.7008 35.3719 25.5227 33.4907C28.3418 31.6094 27.4039 33.4906 27.4039 36.3125C27.4039 39.1289 29.2852 39.1289 29.2852 40.0696C29.2852 41.0102 29.2852 38.1883 30.2258 37.2531C31.1664 36.3125 30.2258 34.4313 32.107 33.4907C33.9855 32.55 32.107 34.4313 33.9855 32.55C35.8668 30.6688 34.9262 29.7309 36.8047 27.8496C38.6832 25.9684 37.7453 25.9684 40.5645 25.0305C43.3863 24.0899 43.3863 23.1492 45.2676 23.1492C47.1488 23.1492 47.1488 20.3328 51.8465 18.4516C56.5441 16.5703 56.5441 14.6891 56.5441 14.6891C56.5441 14.6891 50.9059 21.2707 56.5441 16.5703C62.1852 11.8672 60.3039 13.7485 62.1852 14.6891C64.0664 15.6297 68.7641 17.511 68.7641 15.6297C68.7641 13.7485 65.0043 15.6297 65.0043 10.9293C65.0043 6.22893 63.4703 4.52268 63.4703 2.64417Z" fill="#BFCE66"/>
<path d="M174.119 89.9829C174.119 102.698 166.89 114.655 158.9 121.103C153.833 125.188 156.179 121.538 153.896 124.712C151.61 127.884 152.761 116.446 152.471 114.62C152.176 112.793 154.284 114.327 153.994 112.503C153.707 110.679 156.425 110.242 154.938 106.739C153.448 103.236 155.113 102.031 155.583 99.1512C156.056 96.261 155.728 100.059 155.001 95.4981C154.271 90.9317 153.366 91.0766 153.981 89.1051C154.602 87.1364 157.464 87.6121 157.03 84.8723C156.592 82.1379 156.3 80.3059 156.3 80.3059C156.3 80.3059 154.342 79.6852 154.194 78.7746C154.049 77.8586 155.862 77.5715 155.569 75.745C155.282 73.9211 151.069 70.8504 150.628 68.1051C150.191 65.368 152.157 65.9914 151.714 63.2571C151.279 60.5172 150.227 59.7489 149.171 58.9805C148.116 58.2121 147.208 58.3571 146.016 56.6782C144.818 54.9965 138.318 55.0977 138.608 56.9243C138.898 58.7453 136.94 58.1219 133.309 58.7043C129.68 59.2785 130.266 62.9344 127.714 58.6578C125.177 54.384 118.677 54.4825 119.145 51.6004C119.618 48.7184 117.947 49.9215 115.989 49.2953C114.026 48.6692 111.018 47.2801 112.394 44.2532C113.775 41.2262 113.337 38.4864 111.229 36.9469C109.126 35.4102 112.607 33.92 113.077 31.0352C113.548 28.1559 114.455 28.011 115.071 26.0368C115.689 24.0653 114.633 23.3024 114.488 22.3891C114.341 21.4703 113.903 18.736 112.708 17.0516C111.508 15.3754 108.027 16.8657 109.4 13.836C110.783 10.8118 111.543 9.75355 111.398 8.83753C111.251 7.92425 111.251 7.92425 109.29 7.30081C107.33 6.68011 108.525 8.36449 105.659 7.88324C102.791 7.40199 102.028 8.46292 100.83 6.78128C99.6297 5.10238 99.3371 3.27855 97.5242 3.56292C95.7113 3.85277 95.7113 3.85277 91.9324 3.51644C88.1562 3.18558 86.1929 2.55941 87.8664 1.35902C89.5371 0.155891 92.2605 -0.278875 95.1289 0.199641C97.9918 0.680891 148.993 3.21839 167.07 53.6211C170.201 61.5453 174.325 72.729 174.119 89.9829Z" fill="#BFCE66"/>
<path d="M126.282 165.506C121.207 168.664 85.0719 182.695 53.334 166.827C53.334 166.827 53.6703 160.645 60.6594 165.145C67.6484 169.646 72.2531 163.857 69.6336 158.859C67.0141 153.858 73.4207 155.794 75.7449 162.865C77.607 168.52 98.6453 167.15 106.507 163.644C114.362 160.144 130.87 160.757 126.282 165.506Z" fill="#BFCE66"/>
<path opacity="0.1" d="M50.6039 61.1088C50.0096 61.3551 49.3996 61.6714 49.073 62.2257C48.7271 62.8114 48.7685 63.5385 48.8329 64.2161C49.3941 70.0924 50.8725 76.342 48.3196 81.6649C47.0804 84.2473 45.0077 86.3167 43.3591 88.662C41.7105 91.0072 40.4658 93.9352 41.2312 96.6941C42.1659 100.065 45.6544 101.934 48.0059 104.529C49.545 106.225 50.6241 108.286 52.0602 110.07C53.4963 111.855 55.4641 113.427 57.7567 113.532C61.0538 113.683 63.7365 110.838 66.9693 110.179C70.2812 109.504 73.6161 111.221 76.3015 113.277C78.9869 115.333 81.4294 117.823 84.5582 119.106C88.0136 120.525 91.9088 120.308 95.5464 121.16C98.8583 121.937 101.907 123.589 105.195 124.47C108.483 125.351 112.337 125.297 114.884 123.048C118.204 120.106 117.943 114.866 120.064 110.974C122.033 107.358 125.889 105.2 128.484 102.003C133.154 96.2501 133.001 87.4567 129.036 81.1998C125.071 74.9428 117.889 71.1543 110.545 70.1678C107.233 69.7238 103.822 69.7845 100.638 68.7741C92.1158 66.0713 87.044 56.3871 78.3429 54.3719C72.812 53.0931 67.4329 55.3078 62.7218 58.0336C58.6325 60.4 54.8597 59.3446 50.6039 61.1088Z" fill="#F9C926"/>
<path d="M88 122C106.225 122 121 107.002 121 88.5C121 69.9985 106.225 55 88 55C69.7746 55 55 69.9985 55 88.5C55 107.002 69.7746 122 88 122Z" fill="url(#paint0_linear)"/>
<path d="M88 121C106.225 121 121 106.449 121 88.5C121 70.5507 106.225 56 88 56C69.7746 56 55 70.5507 55 88.5C55 106.449 69.7746 121 88 121Z" fill="#F9C926"/>
<path d="M88 115C102.359 115 114 103.359 114 89C114 74.6406 102.359 63 88 63C73.6406 63 62 74.6406 62 89C62 103.359 73.6406 115 88 115Z" fill="#F2F2F2"/>
<path opacity="0.3" d="M89 67H87V90H89V67Z" fill="#333333"/>
<g opacity="0.1">
<path opacity="0.1" d="M110.425 88.1719H89.5884V90.0106H110.425V88.1719Z" fill="black"/>
<path opacity="0.1" d="M74.8773 81.2928L74.0219 82.9216L87.1327 89.7678L87.9881 88.139L74.8773 81.2928Z" fill="black"/>
<path opacity="0.1" d="M88.021 91.8493C89.5486 91.8493 90.787 90.6144 90.787 89.0912C90.787 87.568 89.5486 86.3331 88.021 86.3331C86.4934 86.3331 85.2551 87.568 85.2551 89.0912C85.2551 90.6144 86.4934 91.8493 88.021 91.8493Z" fill="black"/>
</g>
<path d="M110 88H90V90H110V88Z" fill="#333333"/>
<path d="M87.9942 87.7732L74.8834 80.927L74.0279 82.5559L87.1387 89.4021L87.9942 87.7732Z" fill="#333333"/>
<path d="M88 91C89.6569 91 91 89.8807 91 88.5C91 87.1193 89.6569 86 88 86C86.3431 86 85 87.1193 85 88.5C85 89.8807 86.3431 91 88 91Z" fill="#535461"/>
<g opacity="0.1">
<path opacity="0.1" d="M63.9553 91.8493C63.9553 77.4798 75.6369 65.8316 90.0475 65.8316C94.0922 65.828 98.0822 66.7636 101.701 68.5642C105.321 70.3648 108.47 72.981 110.899 76.2056C106.459 68.1594 97.8844 62.7058 88.0191 62.7058C73.6085 62.7058 61.9269 74.354 61.9269 88.7235C61.9185 94.3685 63.7596 99.8617 67.1703 104.367C65.0552 100.532 63.9491 96.2258 63.9553 91.8493Z" fill="black"/>
</g>
<g opacity="0.1">
<path opacity="0.1" d="M98.2735 97.2293C98.154 97.3428 98.0567 97.4775 97.9867 97.6265C97.3312 97.3314 96.6425 96.959 96.3917 96.8211L96.3723 96.811C96.4974 96.654 96.6407 96.5123 96.7992 96.389C96.7992 96.389 98.6109 96.9351 98.2735 97.2293Z" fill="black"/>
</g>
<g opacity="0.1">
<path opacity="0.1" d="M101.857 69.9843C101.609 70.3068 101.277 70.5556 100.898 70.7037C100.518 70.8518 100.105 70.8936 99.7035 70.8246C99.6804 70.3539 99.5827 69.8841 99.3264 69.5972C98.6524 68.8415 101.516 68.9675 101.516 68.9675C101.604 69.3145 101.718 69.6544 101.857 69.9843Z" fill="black"/>
</g>
<g opacity="0.1">
<path opacity="0.1" d="M106.413 73.9495C106.103 74.0635 104.903 74.5462 104.771 75.2366C104.689 74.929 104.627 74.6164 104.586 74.3007L106.062 73.5027C106.201 73.6323 106.32 73.7831 106.413 73.9495Z" fill="black"/>
</g>
<defs>
<linearGradient id="paint0_linear" x1="88" y1="122" x2="88" y2="55" gradientUnits="userSpaceOnUse">
<stop stop-color="#808080" stop-opacity="0.25"/>
<stop offset="0.54" stop-color="#808080" stop-opacity="0.12"/>
<stop offset="1" stop-color="#808080" stop-opacity="0.1"/>
</linearGradient>
</defs>
</svg>
