<svg width="186" height="186" viewBox="0 0 186 186" fill="none" xmlns="http://www.w3.org/2000/svg">
<path d="M93 184.729C143.66 184.729 184.729 143.66 184.729 93C184.729 42.3397 143.66 1.27148 93 1.27148C42.3397 1.27148 1.27148 42.3397 1.27148 93C1.27148 143.66 42.3397 184.729 93 184.729Z" fill="#324A5E"/>
<path d="M120.21 78.1418C119.556 79.5586 119.156 81.4113 119.156 83.373C119.156 87.9867 121.263 91.7285 123.915 91.7285C126.531 91.7285 128.674 87.9867 128.674 83.373C128.674 81.375 128.275 79.5586 127.621 78.1418H120.21Z" fill="#CED5E0"/>
<path d="M136.303 89.1855C135.649 90.6023 135.25 92.4551 135.25 94.4168C135.25 99.0305 137.357 102.772 140.009 102.772C142.624 102.772 144.768 99.0305 144.768 94.4168C144.768 92.4187 144.368 90.6023 143.714 89.1855H136.303Z" fill="#CED5E0"/>
<path d="M65.7902 78.1418C66.4441 79.5586 66.8437 81.4113 66.8437 83.373C66.8437 87.9867 64.7367 91.7285 62.0848 91.7285C59.4691 91.7285 57.3258 87.9867 57.3258 83.373C57.3258 81.375 57.7254 79.5586 58.3793 78.1418H65.7902Z" fill="#CED5E0"/>
<path d="M49.6969 89.1855C50.3508 90.6023 50.7504 92.4551 50.7504 94.4168C50.7504 99.0305 48.6434 102.772 45.9914 102.772C43.3395 102.772 41.2324 99.0305 41.2324 94.4168C41.2324 92.4187 41.632 90.6023 42.2859 89.1855H49.6969Z" fill="#CED5E0"/>
<path d="M151.597 117.195L93 100.556V64.773L151.597 101.937V117.195Z" fill="#E6E9EE"/>
<path d="M34.4027 117.195L93 100.556V64.773L34.4027 101.937V117.195Z" fill="#E6E9EE"/>
<path d="M120.537 149.563L93 140.118V119.774L120.537 140.88V149.563Z" fill="#E6E9EE"/>
<path d="M65.4633 149.563L93 140.118V119.774L65.4633 140.88V149.563Z" fill="#E6E9EE"/>
<path d="M104.48 75.8894C104.48 111.055 99.3211 154.613 93 154.613C86.6789 154.613 81.5203 111.019 81.5203 75.8894C81.5203 40.7238 86.6789 27.3187 93 27.3187C99.3211 27.3187 104.48 40.7601 104.48 75.8894Z" fill="white"/>
<path d="M100.302 53.0027C100.302 53.1844 100.302 53.366 100.266 53.5113C98.3766 51.6586 95.8336 50.5324 92.9637 50.5324C90.1301 50.5324 87.5508 51.6586 85.6617 53.5113C85.6617 53.3297 85.6254 53.1844 85.6254 53.0027C85.6254 48.9703 88.8949 45.7008 92.9273 45.7008C97.0324 45.6644 100.302 48.934 100.302 53.0027Z" fill="#324A5E"/>
<path d="M93 143.968C92.5277 143.968 92.1281 143.569 92.1281 143.096V126.93C92.1281 126.458 92.5277 126.059 93 126.059C93.4723 126.059 93.8719 126.458 93.8719 126.93V143.096C93.8719 143.569 93.4723 143.968 93 143.968Z" fill="#E6E9EE"/>
<path d="M135.468 48.5344L142.842 47.4445L135.468 46.391L138.374 42.5402L134.487 45.4102L133.433 38.0719L132.38 45.4102L128.493 42.5402L131.399 46.391L124.061 47.4445L131.399 48.5344L128.493 52.3852L132.38 49.4789L133.433 56.8535L134.487 49.4789L138.374 52.3852L135.468 48.5344Z" fill="#FFD05B"/>
<path d="M33.4945 67.0254L40.8691 65.9355L33.4945 64.882L36.4008 61.0312L32.5137 63.9012L31.4602 56.5629L30.4066 63.9012L26.5195 61.0312L29.4258 64.882L22.0512 65.9355L29.4258 67.0254L26.5195 70.8762L30.4066 67.9699L31.4602 75.3445L32.5137 67.9699L36.4008 70.8762L33.4945 67.0254Z" fill="#84DBFF"/>
<path d="M144.877 147.093L152.215 146.039L144.877 144.949L147.783 141.098L143.896 144.005L142.842 136.63L141.752 144.005L137.902 141.098L140.808 144.949L133.433 146.039L140.808 147.093L137.902 150.943L141.752 148.073L142.842 155.412L143.896 148.073L147.783 150.943L144.877 147.093Z" fill="#4CDBC4"/>
</svg>
